<mxfile host="app.diagrams.net" modified="2023-10-07T23:54:41.959Z" agent="Mozilla/5.0 (Windows NT 10.0; Win64; x64) AppleWebKit/537.36 (KHTML, like Gecko) Chrome/117.0.0.0 Safari/537.36" etag="IZPY7BKobbvW1wsdfrnn" version="22.0.0" type="device">
  <diagram name="Page-1" id="rL2nPtFPvLJ6W0yZYN2j">
    <mxGraphModel dx="4137" dy="2500" grid="1" gridSize="10" guides="1" tooltips="1" connect="1" arrows="1" fold="1" page="1" pageScale="1" pageWidth="850" pageHeight="1100" math="0" shadow="0">
      <root>
        <mxCell id="0" />
        <mxCell id="1" parent="0" />
        <mxCell id="Pc2j3zboLIjNZZmsstZU-35" value="Pool" style="swimlane;childLayout=stackLayout;resizeParent=1;resizeParentMax=0;horizontal=1;startSize=20;horizontalStack=0;html=1;" vertex="1" parent="1">
          <mxGeometry x="260" y="180" width="480" height="260" as="geometry" />
        </mxCell>
        <mxCell id="Pc2j3zboLIjNZZmsstZU-36" value="Lane 1" style="swimlane;startSize=20;horizontal=0;html=1;" vertex="1" parent="Pc2j3zboLIjNZZmsstZU-35">
          <mxGeometry y="20" width="480" height="120" as="geometry" />
        </mxCell>
        <mxCell id="Pc2j3zboLIjNZZmsstZU-30" value="" style="rounded=1;whiteSpace=wrap;html=1;fillColor=#ffe6cc;strokeColor=#d79b00;" vertex="1" parent="Pc2j3zboLIjNZZmsstZU-36">
          <mxGeometry x="110" y="40" width="110" height="60" as="geometry" />
        </mxCell>
        <mxCell id="Pc2j3zboLIjNZZmsstZU-45" value="Lane 1" style="swimlane;startSize=20;horizontal=0;html=1;fillColor=#ffe6cc;strokeColor=#d79b00;" vertex="1" parent="Pc2j3zboLIjNZZmsstZU-36">
          <mxGeometry width="480" height="120" as="geometry" />
        </mxCell>
        <mxCell id="Pc2j3zboLIjNZZmsstZU-46" value="" style="rounded=1;whiteSpace=wrap;html=1;fillColor=#ffe6cc;strokeColor=#d79b00;" vertex="1" parent="Pc2j3zboLIjNZZmsstZU-45">
          <mxGeometry x="110" y="40" width="110" height="60" as="geometry" />
        </mxCell>
        <mxCell id="Pc2j3zboLIjNZZmsstZU-37" value="Lane 2" style="swimlane;startSize=20;horizontal=0;html=1;fillColor=#f8cecc;strokeColor=#b85450;" vertex="1" parent="Pc2j3zboLIjNZZmsstZU-35">
          <mxGeometry y="140" width="480" height="120" as="geometry" />
        </mxCell>
        <mxCell id="Pc2j3zboLIjNZZmsstZU-32" value="" style="rounded=1;whiteSpace=wrap;html=1;fillColor=#f8cecc;strokeColor=#b85450;" vertex="1" parent="Pc2j3zboLIjNZZmsstZU-37">
          <mxGeometry x="270" y="20" width="110" height="60" as="geometry" />
        </mxCell>
        <mxCell id="Pc2j3zboLIjNZZmsstZU-47" style="edgeStyle=orthogonalEdgeStyle;rounded=0;orthogonalLoop=1;jettySize=auto;html=1;exitX=1;exitY=0.5;exitDx=0;exitDy=0;entryX=0.455;entryY=-0.042;entryDx=0;entryDy=0;entryPerimeter=0;" edge="1" parent="Pc2j3zboLIjNZZmsstZU-35" source="Pc2j3zboLIjNZZmsstZU-46" target="Pc2j3zboLIjNZZmsstZU-32">
          <mxGeometry relative="1" as="geometry" />
        </mxCell>
        <mxCell id="Pc2j3zboLIjNZZmsstZU-44" style="edgeStyle=orthogonalEdgeStyle;rounded=0;orthogonalLoop=1;jettySize=auto;html=1;entryX=0;entryY=0.5;entryDx=0;entryDy=0;" edge="1" parent="1" source="Pc2j3zboLIjNZZmsstZU-39" target="Pc2j3zboLIjNZZmsstZU-30">
          <mxGeometry relative="1" as="geometry" />
        </mxCell>
        <mxCell id="Pc2j3zboLIjNZZmsstZU-39" value="" style="strokeWidth=2;html=1;shape=mxgraph.flowchart.start_1;whiteSpace=wrap;fillColor=#d5e8d4;strokeColor=#82b366;" vertex="1" parent="1">
          <mxGeometry x="270" y="90" width="100" height="60" as="geometry" />
        </mxCell>
        <mxCell id="Pc2j3zboLIjNZZmsstZU-40" value="" style="strokeWidth=2;html=1;shape=mxgraph.flowchart.start_1;whiteSpace=wrap;fillColor=#dae8fc;strokeColor=#6c8ebf;" vertex="1" parent="1">
          <mxGeometry x="630" y="500" width="100" height="60" as="geometry" />
        </mxCell>
        <mxCell id="Pc2j3zboLIjNZZmsstZU-48" style="edgeStyle=orthogonalEdgeStyle;rounded=0;orthogonalLoop=1;jettySize=auto;html=1;entryX=0;entryY=0.667;entryDx=0;entryDy=0;entryPerimeter=0;" edge="1" parent="1" source="Pc2j3zboLIjNZZmsstZU-32" target="Pc2j3zboLIjNZZmsstZU-40">
          <mxGeometry relative="1" as="geometry">
            <Array as="points">
              <mxPoint x="585" y="540" />
            </Array>
          </mxGeometry>
        </mxCell>
        <mxCell id="Pc2j3zboLIjNZZmsstZU-49" value="" style="strokeWidth=2;html=1;shape=mxgraph.flowchart.start_1;whiteSpace=wrap;fillColor=#dae8fc;strokeColor=#6c8ebf;" vertex="1" parent="1">
          <mxGeometry x="138" y="660" width="100" height="60" as="geometry" />
        </mxCell>
        <mxCell id="Pc2j3zboLIjNZZmsstZU-54" value="Password Reset Process" style="swimlane;childLayout=stackLayout;resizeParent=1;resizeParentMax=0;horizontal=1;startSize=20;horizontalStack=0;html=1;" vertex="1" parent="1">
          <mxGeometry x="100" y="750" width="1090" height="290" as="geometry" />
        </mxCell>
        <mxCell id="Pc2j3zboLIjNZZmsstZU-55" value="User" style="swimlane;startSize=20;horizontal=0;html=1;fillColor=#d5e8d4;strokeColor=#82b366;" vertex="1" parent="Pc2j3zboLIjNZZmsstZU-54">
          <mxGeometry y="20" width="1090" height="120" as="geometry" />
        </mxCell>
        <mxCell id="Pc2j3zboLIjNZZmsstZU-64" value="" style="shape=ext;double=1;rounded=1;whiteSpace=wrap;html=1;fillColor=#d5e8d4;strokeColor=#82b366;" vertex="1" parent="Pc2j3zboLIjNZZmsstZU-55">
          <mxGeometry x="48" y="20" width="90" height="60" as="geometry" />
        </mxCell>
        <mxCell id="Pc2j3zboLIjNZZmsstZU-69" style="edgeStyle=orthogonalEdgeStyle;rounded=0;orthogonalLoop=1;jettySize=auto;html=1;entryX=0;entryY=0.5;entryDx=0;entryDy=0;" edge="1" parent="Pc2j3zboLIjNZZmsstZU-55" source="Pc2j3zboLIjNZZmsstZU-65" target="Pc2j3zboLIjNZZmsstZU-68">
          <mxGeometry relative="1" as="geometry" />
        </mxCell>
        <mxCell id="Pc2j3zboLIjNZZmsstZU-65" value="Initial Forgotten Password" style="text;html=1;strokeColor=none;fillColor=none;align=center;verticalAlign=middle;whiteSpace=wrap;rounded=0;" vertex="1" parent="Pc2j3zboLIjNZZmsstZU-55">
          <mxGeometry x="48" y="30" width="90" height="40" as="geometry" />
        </mxCell>
        <mxCell id="Pc2j3zboLIjNZZmsstZU-67" value="" style="shape=ext;double=1;rounded=1;whiteSpace=wrap;html=1;fillColor=#d5e8d4;strokeColor=#82b366;" vertex="1" parent="Pc2j3zboLIjNZZmsstZU-55">
          <mxGeometry x="178" y="20" width="90" height="60" as="geometry" />
        </mxCell>
        <mxCell id="Pc2j3zboLIjNZZmsstZU-68" value="Verify Existing&lt;br style=&quot;border-color: var(--border-color);&quot;&gt;Account" style="text;html=1;strokeColor=none;fillColor=none;align=center;verticalAlign=middle;whiteSpace=wrap;rounded=0;" vertex="1" parent="Pc2j3zboLIjNZZmsstZU-55">
          <mxGeometry x="178" y="30" width="90" height="40" as="geometry" />
        </mxCell>
        <mxCell id="Pc2j3zboLIjNZZmsstZU-73" style="edgeStyle=orthogonalEdgeStyle;rounded=0;orthogonalLoop=1;jettySize=auto;html=1;entryX=1;entryY=0.5;entryDx=0;entryDy=0;" edge="1" parent="Pc2j3zboLIjNZZmsstZU-55" source="Pc2j3zboLIjNZZmsstZU-71" target="Pc2j3zboLIjNZZmsstZU-68">
          <mxGeometry relative="1" as="geometry" />
        </mxCell>
        <mxCell id="Pc2j3zboLIjNZZmsstZU-71" value="" style="shape=parallelogram;html=1;strokeWidth=2;perimeter=parallelogramPerimeter;whiteSpace=wrap;rounded=1;arcSize=12;size=0.23;fillColor=#d5e8d4;strokeColor=#82b366;" vertex="1" parent="Pc2j3zboLIjNZZmsstZU-55">
          <mxGeometry x="334" y="20" width="120" height="60" as="geometry" />
        </mxCell>
        <mxCell id="Pc2j3zboLIjNZZmsstZU-72" value="Account Not Found Error" style="text;html=1;strokeColor=none;fillColor=none;align=center;verticalAlign=middle;whiteSpace=wrap;rounded=0;" vertex="1" parent="Pc2j3zboLIjNZZmsstZU-55">
          <mxGeometry x="359" y="40" width="70" height="20" as="geometry" />
        </mxCell>
        <mxCell id="Pc2j3zboLIjNZZmsstZU-74" value="" style="shape=ext;double=1;rounded=1;whiteSpace=wrap;html=1;fillColor=#d5e8d4;strokeColor=#82b366;" vertex="1" parent="Pc2j3zboLIjNZZmsstZU-55">
          <mxGeometry x="518" y="20" width="90" height="60" as="geometry" />
        </mxCell>
        <mxCell id="Pc2j3zboLIjNZZmsstZU-106" style="edgeStyle=orthogonalEdgeStyle;rounded=0;orthogonalLoop=1;jettySize=auto;html=1;" edge="1" parent="Pc2j3zboLIjNZZmsstZU-55" source="Pc2j3zboLIjNZZmsstZU-75">
          <mxGeometry relative="1" as="geometry">
            <mxPoint x="759.9999999999998" y="160" as="targetPoint" />
          </mxGeometry>
        </mxCell>
        <mxCell id="Pc2j3zboLIjNZZmsstZU-75" value="Reset&amp;nbsp;&lt;br&gt;Password" style="text;html=1;strokeColor=none;fillColor=none;align=center;verticalAlign=middle;whiteSpace=wrap;rounded=0;" vertex="1" parent="Pc2j3zboLIjNZZmsstZU-55">
          <mxGeometry x="518" y="30" width="90" height="40" as="geometry" />
        </mxCell>
        <mxCell id="Pc2j3zboLIjNZZmsstZU-81" style="edgeStyle=orthogonalEdgeStyle;rounded=0;orthogonalLoop=1;jettySize=auto;html=1;entryX=0.5;entryY=1;entryDx=0;entryDy=0;" edge="1" parent="Pc2j3zboLIjNZZmsstZU-55" source="Pc2j3zboLIjNZZmsstZU-80" target="Pc2j3zboLIjNZZmsstZU-71">
          <mxGeometry relative="1" as="geometry" />
        </mxCell>
        <mxCell id="Pc2j3zboLIjNZZmsstZU-80" value="No" style="text;html=1;strokeColor=none;fillColor=none;align=center;verticalAlign=middle;whiteSpace=wrap;rounded=0;" vertex="1" parent="Pc2j3zboLIjNZZmsstZU-55">
          <mxGeometry x="346" y="110" width="60" height="10" as="geometry" />
        </mxCell>
        <mxCell id="Pc2j3zboLIjNZZmsstZU-56" value="System" style="swimlane;startSize=20;horizontal=0;html=1;fillColor=#ffe6cc;strokeColor=#d79b00;" vertex="1" parent="Pc2j3zboLIjNZZmsstZU-54">
          <mxGeometry y="140" width="1090" height="150" as="geometry" />
        </mxCell>
        <mxCell id="Pc2j3zboLIjNZZmsstZU-98" style="edgeStyle=orthogonalEdgeStyle;rounded=0;orthogonalLoop=1;jettySize=auto;html=1;" edge="1" parent="Pc2j3zboLIjNZZmsstZU-56" source="Pc2j3zboLIjNZZmsstZU-76">
          <mxGeometry relative="1" as="geometry">
            <mxPoint x="374" y="10" as="targetPoint" />
          </mxGeometry>
        </mxCell>
        <mxCell id="Pc2j3zboLIjNZZmsstZU-76" value="" style="strokeWidth=2;html=1;shape=mxgraph.flowchart.decision;whiteSpace=wrap;fillColor=#fff2cc;strokeColor=#d6b656;" vertex="1" parent="Pc2j3zboLIjNZZmsstZU-56">
          <mxGeometry x="314" y="28" width="120" height="90" as="geometry" />
        </mxCell>
        <mxCell id="Pc2j3zboLIjNZZmsstZU-77" value="Account Exists" style="text;html=1;strokeColor=none;fillColor=none;align=center;verticalAlign=middle;whiteSpace=wrap;rounded=0;" vertex="1" parent="Pc2j3zboLIjNZZmsstZU-56">
          <mxGeometry x="331.5" y="63" width="85" height="20" as="geometry" />
        </mxCell>
        <mxCell id="Pc2j3zboLIjNZZmsstZU-103" style="edgeStyle=orthogonalEdgeStyle;rounded=0;orthogonalLoop=1;jettySize=auto;html=1;" edge="1" parent="Pc2j3zboLIjNZZmsstZU-56" source="Pc2j3zboLIjNZZmsstZU-99" target="Pc2j3zboLIjNZZmsstZU-101">
          <mxGeometry relative="1" as="geometry" />
        </mxCell>
        <mxCell id="Pc2j3zboLIjNZZmsstZU-99" value="Yes" style="text;html=1;strokeColor=none;fillColor=none;align=center;verticalAlign=middle;whiteSpace=wrap;rounded=0;" vertex="1" parent="Pc2j3zboLIjNZZmsstZU-56">
          <mxGeometry x="428" y="68" width="62" height="10" as="geometry" />
        </mxCell>
        <mxCell id="Pc2j3zboLIjNZZmsstZU-101" value="" style="shape=parallelogram;html=1;strokeWidth=2;perimeter=parallelogramPerimeter;whiteSpace=wrap;rounded=1;arcSize=12;size=0.23;fillColor=#fff2cc;strokeColor=#d6b656;" vertex="1" parent="Pc2j3zboLIjNZZmsstZU-56">
          <mxGeometry x="520" y="43" width="120" height="60" as="geometry" />
        </mxCell>
        <mxCell id="Pc2j3zboLIjNZZmsstZU-102" value="Generate&lt;br style=&quot;border-color: var(--border-color);&quot;&gt;Password&lt;br style=&quot;border-color: var(--border-color);&quot;&gt;Reset&amp;nbsp;&lt;br style=&quot;border-color: var(--border-color);&quot;&gt;Email" style="text;html=1;strokeColor=none;fillColor=none;align=center;verticalAlign=middle;whiteSpace=wrap;rounded=0;" vertex="1" parent="Pc2j3zboLIjNZZmsstZU-56">
          <mxGeometry x="547" y="60" width="70" height="23" as="geometry" />
        </mxCell>
        <mxCell id="Pc2j3zboLIjNZZmsstZU-104" value="" style="strokeWidth=2;html=1;shape=mxgraph.flowchart.stored_data;whiteSpace=wrap;fillColor=#fff2cc;strokeColor=#d6b656;" vertex="1" parent="Pc2j3zboLIjNZZmsstZU-56">
          <mxGeometry x="710" y="43" width="100" height="60" as="geometry" />
        </mxCell>
        <mxCell id="Pc2j3zboLIjNZZmsstZU-113" style="edgeStyle=orthogonalEdgeStyle;rounded=0;orthogonalLoop=1;jettySize=auto;html=1;entryX=0;entryY=0.5;entryDx=0;entryDy=0;" edge="1" parent="Pc2j3zboLIjNZZmsstZU-56" source="Pc2j3zboLIjNZZmsstZU-105" target="Pc2j3zboLIjNZZmsstZU-108">
          <mxGeometry relative="1" as="geometry" />
        </mxCell>
        <mxCell id="Pc2j3zboLIjNZZmsstZU-105" value="Save New&lt;br&gt;Password" style="text;html=1;strokeColor=none;fillColor=none;align=center;verticalAlign=middle;whiteSpace=wrap;rounded=0;" vertex="1" parent="Pc2j3zboLIjNZZmsstZU-56">
          <mxGeometry x="730" y="58" width="60" height="30" as="geometry" />
        </mxCell>
        <mxCell id="Pc2j3zboLIjNZZmsstZU-112" style="edgeStyle=orthogonalEdgeStyle;rounded=0;orthogonalLoop=1;jettySize=auto;html=1;" edge="1" parent="Pc2j3zboLIjNZZmsstZU-56" source="Pc2j3zboLIjNZZmsstZU-107">
          <mxGeometry relative="1" as="geometry">
            <mxPoint x="925" y="180" as="targetPoint" />
          </mxGeometry>
        </mxCell>
        <mxCell id="Pc2j3zboLIjNZZmsstZU-107" value="" style="shape=ext;double=1;rounded=1;whiteSpace=wrap;html=1;fillColor=#fff2cc;strokeColor=#d6b656;" vertex="1" parent="Pc2j3zboLIjNZZmsstZU-56">
          <mxGeometry x="880" y="43" width="90" height="60" as="geometry" />
        </mxCell>
        <mxCell id="Pc2j3zboLIjNZZmsstZU-108" value="Redirect&lt;br&gt;to Login" style="text;html=1;strokeColor=#d6b656;fillColor=#fff2cc;align=center;verticalAlign=middle;whiteSpace=wrap;rounded=0;" vertex="1" parent="Pc2j3zboLIjNZZmsstZU-56">
          <mxGeometry x="880" y="53" width="90" height="40" as="geometry" />
        </mxCell>
        <mxCell id="Pc2j3zboLIjNZZmsstZU-84" style="edgeStyle=orthogonalEdgeStyle;rounded=0;orthogonalLoop=1;jettySize=auto;html=1;entryX=0;entryY=0.5;entryDx=0;entryDy=0;entryPerimeter=0;" edge="1" parent="Pc2j3zboLIjNZZmsstZU-54" source="Pc2j3zboLIjNZZmsstZU-67" target="Pc2j3zboLIjNZZmsstZU-76">
          <mxGeometry relative="1" as="geometry">
            <Array as="points">
              <mxPoint x="210" y="213" />
            </Array>
          </mxGeometry>
        </mxCell>
        <mxCell id="Pc2j3zboLIjNZZmsstZU-66" style="edgeStyle=orthogonalEdgeStyle;rounded=0;orthogonalLoop=1;jettySize=auto;html=1;entryX=0.452;entryY=-0.012;entryDx=0;entryDy=0;entryPerimeter=0;" edge="1" parent="1" source="Pc2j3zboLIjNZZmsstZU-49" target="Pc2j3zboLIjNZZmsstZU-64">
          <mxGeometry relative="1" as="geometry" />
        </mxCell>
        <mxCell id="Pc2j3zboLIjNZZmsstZU-109" value="Start" style="text;html=1;strokeColor=none;fillColor=none;align=center;verticalAlign=middle;whiteSpace=wrap;rounded=0;" vertex="1" parent="1">
          <mxGeometry x="158" y="675" width="60" height="30" as="geometry" />
        </mxCell>
        <mxCell id="Pc2j3zboLIjNZZmsstZU-110" value="" style="strokeWidth=2;html=1;shape=mxgraph.flowchart.start_1;whiteSpace=wrap;fillColor=#dae8fc;strokeColor=#6c8ebf;" vertex="1" parent="1">
          <mxGeometry x="980" y="1080" width="100" height="60" as="geometry" />
        </mxCell>
        <mxCell id="Pc2j3zboLIjNZZmsstZU-111" value="End" style="text;html=1;strokeColor=none;fillColor=none;align=center;verticalAlign=middle;whiteSpace=wrap;rounded=0;" vertex="1" parent="1">
          <mxGeometry x="1000" y="1095" width="60" height="30" as="geometry" />
        </mxCell>
        <mxCell id="Pc2j3zboLIjNZZmsstZU-121" style="edgeStyle=orthogonalEdgeStyle;rounded=0;orthogonalLoop=1;jettySize=auto;html=1;entryX=0.5;entryY=0;entryDx=0;entryDy=0;" edge="1" parent="1" source="Pc2j3zboLIjNZZmsstZU-114" target="Pc2j3zboLIjNZZmsstZU-115">
          <mxGeometry relative="1" as="geometry" />
        </mxCell>
        <mxCell id="Pc2j3zboLIjNZZmsstZU-114" value="Start" style="ellipse;whiteSpace=wrap;html=1;" vertex="1" parent="1">
          <mxGeometry x="158" y="1300" width="120" height="80" as="geometry" />
        </mxCell>
        <mxCell id="Pc2j3zboLIjNZZmsstZU-124" style="edgeStyle=orthogonalEdgeStyle;rounded=0;orthogonalLoop=1;jettySize=auto;html=1;entryX=0;entryY=0.5;entryDx=0;entryDy=0;" edge="1" parent="1" source="Pc2j3zboLIjNZZmsstZU-115" target="Pc2j3zboLIjNZZmsstZU-116">
          <mxGeometry relative="1" as="geometry" />
        </mxCell>
        <mxCell id="Pc2j3zboLIjNZZmsstZU-115" value="Retrieve&lt;br&gt;Supplies" style="rounded=1;whiteSpace=wrap;html=1;absoluteArcSize=1;arcSize=14;strokeWidth=2;" vertex="1" parent="1">
          <mxGeometry x="168" y="1430" width="100" height="100" as="geometry" />
        </mxCell>
        <mxCell id="Pc2j3zboLIjNZZmsstZU-125" style="edgeStyle=orthogonalEdgeStyle;rounded=0;orthogonalLoop=1;jettySize=auto;html=1;entryX=0;entryY=0.5;entryDx=0;entryDy=0;" edge="1" parent="1" source="Pc2j3zboLIjNZZmsstZU-116" target="Pc2j3zboLIjNZZmsstZU-117">
          <mxGeometry relative="1" as="geometry" />
        </mxCell>
        <mxCell id="Pc2j3zboLIjNZZmsstZU-116" value="Boil&amp;nbsp;&lt;br&gt;Water" style="rounded=1;whiteSpace=wrap;html=1;absoluteArcSize=1;arcSize=14;strokeWidth=2;" vertex="1" parent="1">
          <mxGeometry x="340" y="1430" width="100" height="100" as="geometry" />
        </mxCell>
        <mxCell id="Pc2j3zboLIjNZZmsstZU-126" style="edgeStyle=orthogonalEdgeStyle;rounded=0;orthogonalLoop=1;jettySize=auto;html=1;entryX=0;entryY=0.5;entryDx=0;entryDy=0;" edge="1" parent="1" source="Pc2j3zboLIjNZZmsstZU-117" target="Pc2j3zboLIjNZZmsstZU-118">
          <mxGeometry relative="1" as="geometry" />
        </mxCell>
        <mxCell id="Pc2j3zboLIjNZZmsstZU-117" value="Cook&lt;br&gt;Noodles" style="rounded=1;whiteSpace=wrap;html=1;absoluteArcSize=1;arcSize=14;strokeWidth=2;" vertex="1" parent="1">
          <mxGeometry x="500" y="1430" width="100" height="100" as="geometry" />
        </mxCell>
        <mxCell id="Pc2j3zboLIjNZZmsstZU-127" style="edgeStyle=orthogonalEdgeStyle;rounded=0;orthogonalLoop=1;jettySize=auto;html=1;entryX=0;entryY=0.5;entryDx=0;entryDy=0;" edge="1" parent="1" source="Pc2j3zboLIjNZZmsstZU-118" target="Pc2j3zboLIjNZZmsstZU-119">
          <mxGeometry relative="1" as="geometry" />
        </mxCell>
        <mxCell id="Pc2j3zboLIjNZZmsstZU-118" value="Strain&lt;br&gt;Noodles" style="rounded=1;whiteSpace=wrap;html=1;absoluteArcSize=1;arcSize=14;strokeWidth=2;" vertex="1" parent="1">
          <mxGeometry x="670" y="1430" width="100" height="100" as="geometry" />
        </mxCell>
        <mxCell id="Pc2j3zboLIjNZZmsstZU-128" style="edgeStyle=orthogonalEdgeStyle;rounded=0;orthogonalLoop=1;jettySize=auto;html=1;entryX=0.5;entryY=0;entryDx=0;entryDy=0;" edge="1" parent="1" source="Pc2j3zboLIjNZZmsstZU-119" target="Pc2j3zboLIjNZZmsstZU-120">
          <mxGeometry relative="1" as="geometry" />
        </mxCell>
        <mxCell id="Pc2j3zboLIjNZZmsstZU-119" value="Add Ingredients" style="rounded=1;whiteSpace=wrap;html=1;absoluteArcSize=1;arcSize=14;strokeWidth=2;" vertex="1" parent="1">
          <mxGeometry x="830" y="1430" width="100" height="100" as="geometry" />
        </mxCell>
        <mxCell id="Pc2j3zboLIjNZZmsstZU-120" value="End" style="ellipse;whiteSpace=wrap;html=1;" vertex="1" parent="1">
          <mxGeometry x="820" y="1610" width="120" height="80" as="geometry" />
        </mxCell>
        <mxCell id="Pc2j3zboLIjNZZmsstZU-129" value="&lt;font style=&quot;font-size: 18px;&quot;&gt;Preparing Macaroni and Chesse&lt;/font&gt;" style="text;html=1;align=center;verticalAlign=middle;resizable=0;points=[];autosize=1;strokeColor=none;fillColor=none;strokeWidth=7;" vertex="1" parent="1">
          <mxGeometry x="651" y="1283" width="280" height="40" as="geometry" />
        </mxCell>
        <mxCell id="Pc2j3zboLIjNZZmsstZU-130" value="Roshan Sahani" style="text;html=1;align=center;verticalAlign=middle;resizable=0;points=[];autosize=1;strokeColor=none;fillColor=none;" vertex="1" parent="1">
          <mxGeometry x="821" y="1320" width="110" height="30" as="geometry" />
        </mxCell>
        <mxCell id="Pc2j3zboLIjNZZmsstZU-131" value="" style="shape=image;imageAspect=0;aspect=fixed;verticalLabelPosition=bottom;verticalAlign=top;image=data:image/png,iVBORw0KGgoAAAANSUhEUgAABXUAAAI+CAYAAAGEVNnuAAAACXBIWXMAAC4jAAAuIwF4pT92AAAAGXRFWHRTb2Z0d2FyZQBBZG9iZSBJbWFnZVJlYWR5ccllPAAAyjZJREFUeNrsnU9oHFUcx2eC0pyS3UMF01C3JwUv66Hgrem1Hpoi9CRYS6CHekhuloLZ9GAE6zYHeygsNEKTKGhJD10E0exKb2I3OdlbFim1goVtqjTFw/pemCkvs2/ev3nz522+X5jOZubNe2/e+8xvfu83b6Z+v9/3XNSpU++tk9XpZvOu70EHUr5r8BJoeRV+h0C8ie48WHrFcWhDdeiFiO48WBoZAnAhWF5ACwFeQAsdTLcB4ELOWV5ACzkHL4G2S1ZvoCsgp+CFtYWcgxfQQs7BS6BtkdUJNDvkFLywtpBtjQBcCPACXGiY4AW4kJPwAlxoKHxeCHIGXlhdKAvl8pBiYuL1fX8/evRnKuX4vm90EfX7fd/02PB4oDVkbgOFNgouD2YIKozlzRNO1gqy1jRqHaOWFtYT8DptVQnQy2S1TEBuRba3IklbJE0NOA0JvEWAlgB1zIKv/CH5W+YHnyD75mGtHfd5Z2ZmegWytt0Ex56RuSMBrG1gNASWl4Cbd4iskhDYff4utbjQkMObJ7Tl8TFvZW3NhqWFDhK8BFoKS26v8DSbd73Ob/fpQ5G93xkP5vAgxlV487S2IagU2hx1Evg4Bq8qtKOHDnm7L15Yrezq6opXKpUGwM3jY3th+CwIm4Vvh8BJLiK8BNq9rzLK0r12+LD32eKidkVkVpR1C3K2uJBL8Kpa20ajYeJ+CPe//dab3hf1eiy4KlaX55+G23jxW/q3LGYLn9cBeFXAvbKw4E0cOWIV2qi1pZq/fHkg2JCxqyB6UFEGTgWCVwVcE2urMyhj9Wtn3yd4t0ianip0Jvt52/EUrTiK/bg0AbdCVttpQstaX3ZaJA/ciLswR9IsoftgefcMCgWCLCwQ2yrgUYjp76OTk96ntVoqFjfvyAJUbHh9BmLv0ieXvtfN6I+HD1MFt7O16f395InZ7cX3pxTdi1aC/DdsuBWqdQ3rS9LT2GFV9zzIcfTOWuEdF60DLz9ZPRXrMGUDXo+BuL/4+eL7OgOrtHzcUD/+/FMSGPoaabV9W5NIRST9ObK6aXBq4QCxGl44kX6UiZY7H3OcMD+VNlVsy40kg2ferDI/6tvK/Nuk/m/c8a+OjmYGrsmxJM1sknKDdDcNO6/nOSJ6npZDi1v0nxHZQCoKMfVt49LqWOkrgX8cB26pXE7cYBn0yzXT8l19Ry5tg6B4/tVYeEMQf2g2B7bTQRkFbmxsLFEFqI8sstj/Pn+e9AR93aUAnVi2XU/b0mjLuZhzr1nI2xPCS/Xd7dvexxcvcvfV6/V98L17/PhL6P959syTRSpE4FJ3oei3Qc7mdhLAg45xxhVQOJ+lmAtt3lYZ0jcp6OQakTsQQjhz4cLLbbNzc3vHPPj9wQC0dKGTdrLys3SWhJ1FR84nTQDmvQyadn1ttalNF0e3r3Qm5mgPzK5+eZW7/avr1wtvdeManddhYdogdMUNS5F93QL56q5bdV/J8soGcjYjE389flxo10AErgT6bcUyl4GmulHRfgFTJaIQB2joF8dpslLJdaAhgpX8rmoUV9axqMwMt3O6gzTTBys2fU9bdxLdPjJ6e7hx44YRwKxfPBC463SKftF3VF2LuIEX6cj14OdCmu6CQphuKi9wbUZLuBNzbM4mY+dAiKTq6/63u+vbvuJl1kDUCbrlmB6XVV68/LIqx3q0IYn7oAN5Uf0rop7gAumaWiObFshCXuWs2tNmXok+OmIL4CLGdZmGHhfsM3pzmgXYVocG+Tw1HAv00m7LNC7WxN9tMAmhZaQFg0apRSCrRfMJ0/D2WbqV1hLkU4r4tXETX8oSYBcStmmX5L+cdh8Z+7ys6KPiOvOemY50ra6qzwsNv6x8q2xnZwctCbkJr47/m4WvS2+Z7BKXxnZZKmkV89xM4j7olJdV2CyVfrbhNphGF0zg1XEbRBPDdSeNq5Qhy1Ml0hDmEcSET6c9i8xWOzhteXX17epqquCqdpxoggkNk6lMQKFWkvPBaR64x1RBIutplQtB5cmd7nmrplFs2yUbdeClTeP7vErpPjh/XjfrrRxCOOMqUQA6Ag5mlclU0bidpzpzLM25weFFGCyzsjqIzpO5mP3CWF4Dq1vNo1ym0ZYs5NUK8tuIKyuNhxgi31rx3E3yXpfdGcK7G1ndKYTbcH9zU+rLZhgeayvua0tg2hLERdvUZaCLwL+O7muLgAmtrsInp6Y0znGgjOB1Gtm5fyQovyWAvio6ByZ/+n9+TEvq3+adj9UB29e3brHAWYEXcV0oTla+jM5CywIqAlhBT8nxJXQRlAq8292u98u9e1rHqFhdWFsoVXgbjYZPQOzLQNWxvoAWShVeCm1K0QSAC1mJNvCm1rWTgstzGSi0ABcyUewnThVhlB589sy0t7L2zQC8ABYqPLwBqPvgBbhQ7tEGXZcB0EJZ+LwYkEGAF9BCzrkNEWjvoKmhQg3YeIM2WFooK/0vAHtnDxtHEYbhPVcusOKLhBTS5NwCRU4odMHn1gElQXT8xKEwQkHELkNBbEVRWkPn6AonSixR4SZuEHDXIazoLigNBXAUMRIpuBQocQUz1m60Ge/MfPO3e3N+X+lk+XZ3dn6ee/eb2d0ZZ3ir0vz8mf0nnra3722gGQFvDMDyZ2ovi99jhSDEvDE4LQTF47xUaOG+cN5RgnYhsVwpBwK8CBEgwAtoobGFl0HLXwTsoTmgqOCF20LRwQtooejgZdDyN4L/QdVDUcELt4WigxfQQiE0AXAhwAtwoXGBF+BC0YcNEBQVvHBdCM4LQQp5HyrTue7x468c+G539y/vBbOdEl83zTzleGAVKbwyTU1Nsc9LqHEoLniL3FbcHsJ9806Yd1PRHWWrnEOHGF4dtKOudC2JlvDdCvvTEmBvAaUxgXdycjI5erReacFS9zznGi+LiwSq9odjRz7awN22YnDz635t+eroiWFHyHXMoJKd12XJV19myxlL/KyXVgu5gB80IvAyaBvszx9VFWB7+17y7vnzSQqutw4eNObwVum2HFqu+fkzpc/ZAFeOGN4qoX3v3Nnk48XF5+BWpDmgExm8DNpKX+HJ3LZicPfXEJa4MEKOUYSX6rbtdtvGyZXbNzfvJtPT04XgYponwOsM7txbp5P3P7pgdPL2+nry084O2W1tHLcoPs2Py4rbFYs9z2QdU8S8kcBLATeE21LALdN1GdADBi1fn+4IRikigFcHrg20FJ1qnkxWr1/3Aq4OKtn2ou/Zd1jIOwZ4qwJXdNuqHRcaXWW3h/8TwO1TL/v8L//cvX3L6MSffrJIAjevvb1nABc64Lw1EWCK7u/8vO/AHN77/Qesw0Y/9o1TbybJ+k0tuJnrfvfD91YFZHFqixhedGwrMdeBW2bpON2epuY3y7O4P7UcsuOKzl+UpiqflDyYlFOahjAz+oB9TmT/fL22lvzy8KG2s5a5sGkooTuOgytCa7LakMOoQJPVS9/2HCadN5c3PoqOp55bdhylPKZ5LsqT64gNT1N8qqyRHwX4fGlpH6wQ8a0O3OFwaO22aeWcdMhezwW89Jlf3bFrruBWIZs8+x5azMo/oQJLdFjfEF/48APptpePHXNNvheykTTbrxIumZcPA7i+Ac6Xf0LnjBSIs/8pY7f5/U7PFoc92erwroU0+bBD6iU29I+2ea6yg2RYn8YAm6Y7QYFMBbG4jw5g2/i4hIYZ+nYRtt+w4LsNWaON00hAWp5m0CuBuJRV0fguBTRZqJHps0uXkmd7e9r0dK5L6bD5uESZuIdrZ8emQ1RFh83mXLL0fEwvQILXBWDTdEYE3lVWLysF6fIhoFkVfDo4bbYD3hd0kR2/oQ0bfIOpk49Y15OuSip31qYDZRBm4IEf/Y92gxTz2gLMnzAzhftBrxe60E6dIep4LgHmuk0eDeLxpQhiYS9tRA4bbBw2D7truOAaNtg4pOaV98LQwjY2ZvqTbW/4vMz7yptN2CC7irjkW5TVq+/UITEq5KFdN6ss3cfQQVZU6aoaVNJIJ2zyJrt75auctnVq6rrUNsqnb+W8vmJcm1i3rNEGVcdCNwkJ9bLpa0I/ls5C4rBOM7VD6XMCQh9pOU068sWVK+PcMaiFaEjVnGkunRjbtMoYXw51DqdX3/9+/LhU1zUZ6rI4piO8WNmQpZM+N7Fqmzn+7EMWdgiux8+54MlB+Q2Sorc+upq51VZd61XVF3BsoxfSdgobfIQPpvCaPFUGjbe8zFVG7cCV5LoQ4DXT7qNHZeR3mXhZbuU/sn089LYbqnPYnJOHJD46nMRztWKG10vYYBM+TNfryb9PnwYLGRSvsJO2U2NX9qfFY0jK+XSdl3SfJ/xFTx/5c62jQ+O8puGDKbihGk/lcsSx0Qbl4fNUXxEeC5wmQp7o8m5bbqHsQ9t6da1b3fhxNKsBheioeXKdQf6GhaQRskmutwwbvxOqPjU/jvyP8Yht+qon84i3vbvZPkX7eoeX4r4xjTAYAP5Ese3btLE6BHC3RuCh85Vc2bsuVzbJphkfcb13eG/dueM7yYuWx3WJ21X7zWjiwkHaSBzKNcV+3fyPQeao6fGDnDO1ZPuljd+0LP9yGg6o9llN8yHr8HZUP3hVvfHZh9ifOULM3Ve1lbcOmwgtc8vC/W5cu5Z8KcyGo1CTpdNPICjUaEOR28rg9fn0GHS45XR7WBUicEhlAGs0x47roGmgIPC22+0ag5MDNmty3OuvvQq3haqDl4Nre7Jff/sd0ELhYl5Z3CtCS3XefOhQEO8us+1raAbIm/O6uKtMZ995G24LhXdeikydN3NdQAv5UvDbw99sbj4fnAC4UFTOm3NfgAuNjPN2CNDWUrcFuNDoOG/qvrKDuwzaFqoXKn20wUAHlnZCXAuVpf8FYO/cQqM6wjg+G6wV1FywFiqiKQi1F1Arlr7YrPRFtEUFnxRqQkOlF6pRC/ZBjKTWPlibFkVaAq5FsRTx8mAQSs2ugqUWiUJFBdvEPniXbLRVoZV0JuwJJ+O5zvWcs/8fLJvL2Tkzs3N+59vvzM6RMi+IxqJFi/uJ63YJHrR1dx9DvhsAiBdIyjZ2x+IuXQBAvCCeaNtJyG1UIlCi8s2jNwHINmPQBWaj2hCa0KsAQLxAv2wBABAv4ETLPvr3oCcAABCvXtn6rScOAAAQr0LZIoUAAIB4NYu2kT71YQgAACBevbJlq6TOwtsOAIB49coWKQQAAMSrWbTs/k8DeGsBABAvIlsAAMiGeCFcAADEC+ECAEC2xIscLgAg7dSkqbJUukVIFwAA8ZqVLlbvAgCknjSlGqSlO+mZSeTpsWNH/W2gPEgePniAkQAAgHi5aFfoQtqUKc+FbtNQXzf8YFy7dj0Vb1oulzN6YXFoaChnY7/8/gGAeBNKFNkGRcR379zFqAAAQLxBjJ8wntTV1iopi09DpAGvaNAvMg2LHMMiWkSeAFSxeGWi2izgI8C19KH1TsVUzAX6tEr2BIDUAoB4Idu00UwfBY+/a5NuFIGybVy54H7ifTv7QbpNfVjZ7rIAgHgN0tramieVW+5UsXSZlHgBFWxH2hFEPN3n9fUefy4RTBMEEK9V2VbtLXca6mrJ/gMHeNkmIupD9AlAxsRLZVuVay6Me3osOXT48MjvixYtZo8t3d3H2jEsAcg2LJlmWrSJXmtB51xeKtVRv7/b3EKu37rl/r+SyFL1rAb+dWHbqZjviygbIOKVl22RVGkej5etE916ZRuy3heQKQCaxas6hdDV1aWtE87+dmb4+dLFi2T/Dz9qkW2AcBksxVCuyo9cuZznSRmSBhBvBmXrZve332mTbYhwGXPoa8/pSC2EbRc1NeD8X5MMMaMBQLwCslWaszUlW1pvrbKNIFxlOd0kphT85udGLGIvDk0A8WqOcNMk2yjC7e/rIx98+FGgWGgZzSpFZ/L1UbZHqgCAgE+RIrMaZIVbW1tLduzYYaXBx7u7ycFDh3z/7zerYWtHB5kz99XQ8kOi3PNUuLMx7ACAeFmqIE8fR3RKd8Eb88nKd1YlotFBkS8v3rDo1uGLz7aSk6dPV1VKAQCgJuItkNGLoLQQ11dUdV088xKh7vSDn3wd8UYVrl+U+9OJn4ef/330CNIFAERONQyJRIyq5GtLvHH2Wy6XyYoVK4d/fvz4P3KiVHpiG93iNbQ4eQsdJwVbbTCVLza10Lu7PXSf7NNmj6n20/2106fNcfYXpV+i1FFD/x6l+12a1Pc5qK+CLq45Hclykr1hcpKVMUtF9Jw8ZaThhw8elI6wWZTbe/4cuXPXzsLpdPCwKWizDO1uD93fnsrPe+nAaTYpOl3T2SwcgCXahnzVRXe5HBsvezQUvcRvimRCaaD1K4dFvIRPMcSR07p168i9e/dCt3thxgzyycaNT8h78cKFZNny5dqjXZHI+qlx4yJvqyPitX3GVjHAba3Va/iEFVrvrEe8FsfqiOSSUCe+f2LdZZgJiz3+vn8/dFs2a4FJzXlMmzrVc7vLV654SvDY8ePkm071S8w60n128mTt0tUh3CRIV7IN/TJtqPRBUUL2pqXbVo1T65jgLY/VgaQEKJ43CYgT8fIweX2+bZt01Pn+6vfI3Hmv+aYsVOR7ZaPc3Tt3kY83rI/9urReXNORd1V9IMSpQ4x9+0ZKmvo50xGvxn5js7CWiIyTJLRHSryq5HiqVCTzm/KekpTZDz9nd8P6DWTmizNj16++oYH88/ChUNtUirdy0Ohmc4RtYuUqo8iFH/BRRanwos4yWtaRgDKUfUOzGi6umZIb3U+UNbxHjVebkfDI+FYlXl3RqSpE6yWbWlAs3tTldmPUeQEtuyja3qB6yUpAZ6QO8Zo5Lrg+t57jVb46mSNNGQE7r7108RLZ/uV2qfq8Pm8eaV292op0s0ic+6HJRq2VNR8a6Y99KuuVphMdSD/Kc7ymImDRKFhm36qkayHi3SK5GxaBRVkxTMVV40Gf+7DJlMkuZnWmKPoyHfGGfjRPWaqB3V37q5DNRs1DjziWSgqEm/ett27xMmQuwvGwGRVr29pSIV0b4rUlEFVRrqoIVEQEKvov4ZKKlKdOi3hF39MkXFyrIQa4dfv2cMTKUgeyTJg4cWSKWtKlaysVoOIhsN+CyIFAXzNbR51EJ9ab7rcKewXq1VmJloNe087VbcC2cEz3tWh7VB1HPo+ikYhXV/qBT0PILsSjQ7pZu7jmlWoQnaplqD1PpDOS8JVR0WjUdL10Rrw22mK7btpmNdgSMEtBsGg4aZFuFsXrmvIVWRa2D0yZtIhhKdgQcODc5RSJ9yqtR2NCj6NReeYamwdw1G/BRU1BVGt6weDBmePm2UYRxFF+Ko+NgV/ZbyMvC/eDHbgJOKmVuTq1aNjNea7tab3f39dcOxqTWMlK3QqjxqPNiFdn+iEp0sWykAAAnpqkVETHlybCWPL2WxgBAADjJCbiNR393rxxg0xt1P/JBBEvACCxEa/p6Ddt0lU1jSlJK5zx050UTc3iy81r6vdmi/2m5D3Mwmp3EG+K5GviYprqSJe74OL7N1GpKBCczAWakmxbONxrEfQItq3TvQC7R/2Wiva3LfGx90jFPt3lGFq4ye9E2C5YRlHB2B8+qfN9yr5J5yq7PnXideS7//u9SstMo3Q1DeC1HrMUYg08JjhXGWWJA7rJ40C4KnpAuGUp0rYKa5xyfES5RHRdYFtRMn2qc/pFNGLny2FjwMTJw9X3z3P7LsYoI18po8lVRkkicOhhc8Td44x9Xd01Znxn/YxJ+oBhtwP65dczZOeuXdJlseUdId2RaLlT0QHhRB0FZ3Dzq4xFjHjzXgea6Jq7vAwEFtFhZ/xV7te5DjDWviaSYtj0JtftnOK+1yXXz1sM17vf/Ykvrk4qzw2uMhwZ1wlUR3g9h0ReXPM8CvbtY1JLcrTbQOtnZD6kzD3IvF4rUp7fLXRiltFOApYojFmWs/gLm6M62+d/ccsM/DKDgiUyB53oUff7H7Q4jooF5UXKULTE6II4J3oV9XeVMxIw8G0Ka2Oixctk6xFRJk26LbROBQIAABFJVKrh9wsXyNne3sBtpk+fRq5e/cu6dDFNDACQWvF6RbVBXLt5i2zr6CCfbtoUafs3F+QhWwBAorCSaqCyZUlpqYsTUVMOktHuIN1PPYYJACCNEW+pq6sr7xJvUbZAJtQw+QpKdxkt9wiGBgDAasQrGPU2UNmWfYRYJIqm4/jJ95WXXyKX//gTKQQAQHrFW5Evm/u5xuffR6loI32bx4R4w6JdyBYAkArxqkKleL3k6yPdLXS7drzlAADbjMlag9iMB0S1AABEvJojXi7qhWwBAImmJgNtOOqKbCFdAAAi3oCoV2bHXusiDEG8AABEvMG0xdmYRbWuh9c0NUgXAICIVyL6LVG55vH2AACyyP8CsHe2sXEUZxyfM4G4VSE2lBAgwhcpElRCja2SqvnQ2v5WmRc7qB9aaBWnQgkIVGxK1EgV8ZkoDag0cQq0ApnGpoBUCWFHLRYttLbLl6oIbFdIUAnVZ5SY8Go7QDCNWnfG2U3X673ded/Z2/9POi6cd2dm5+W/zz4784wTwpsX2tquZzcTPybo+MjI87i5AADRBQbENraSqfjCRQIARBeYFlsILwAQXaBHbMv0q0HwtF4qvCXUHgAQXcAvtkX6NS17PqxdAKqfNagCbYKLuxcAAKJrQWwjN3cEAACIrl6xjd1lFgAAILr6BBeuBAAARNeC2I4RzRHTAAAQXbBabOFKAABAdC0JLlwJAACIrgWxZTsHt6MmAAAQXVi3AACILsQWAAAgunxiG7f1PAAAQHRh3QIAILoQWwAAgOiGxLZEv3rQ9AAAiC6sWwAARBdiCwAAEF0+se2kX0fRzAAAiC6sWwAARBdiCwAAJqmB4AIAACxdUbFFcBoAAETXkuDO0691aEoAAETXvODCnQAAyBSZ9el6u/ACAABE14LgNhJsew4AgOhaYwJNBwCA6NqxcuHHBQBAdC0JbglNBgCA6NoDIRkBABBdS1ZuGc0FAIDo2qMBzQUAgOjasXI70VQAgGogKyvSlGPinnfeeeSyy9av+n129h30AgAARFcXl3z5ErL2ggsq/v2KKy4nc/ML5LPTpzNxPYVCweqUuaWlpUIa+YbzB6BacN690NZ2fZ2sZcsENU5wferrEC8HAADR9RkWPYGJbZQrIekcAACAe4GQZt4DmdAyCxcAACC6Js31mgLZsGFDLhswyudZyf+a5B+N89vCtwoARBduAQAARNcWSbMSgDmoRdxCv0r0U6YWcCfnsUmUaFpjqF0A0YUrwXl3AqVIPyzG8LDJvCPcD830tx30e4GWqy7h2CRG6Tnse4qm1YihCSC6cCW4BrMKW7x/l72PKbFN2odunaLgBtlCzy9S4S2jiUE1kollwBdfXA/BPUvwUb7FkithiXBs/EmPS3QhMCs9+KE/dVc4dBpNDSC6KVq3tbW1eW+ngdB3mszoSogKbx+GIIDoOsJtt922xD45t2rHIizctGjyrNMBDBsA5HHOp0uFlg3qHTlukzI5G8bSGYHDHF0AqlR082zZjow8v6xvnti6RC+GCQBVJroQ23M4Z1FSK7eEYQJAlYguFVs2oHO579kzzzxN6urOTm298447yPTM22EBBgBAdGHdqrJ3z73kW62t5/6/re363Fx7WjF5Aci16OZVbC9fv548MbByA4yQ4I6jOwIA0dUptl3063AeKznKbRC2cOkxLTmoilYMOQDRhXVrjF89+ggpbtq04rf5+Xlyyy235rKzIaANAIZFV7fYXrVxI3n7+PHMWrcTr75GfnrffVGH78xrB5SN/QsARHel2HbQryFd6dWuXUseefRRY5Xw6it/J2++8QaZ+2iOjPzpRaW0grMSgvyO/j741DOVBHoAXREAiK4T1m1/f7/xSvja1q+TowOD5F/TZe3WrW/hVhJcgsUHAEB0JcWWBS+5W1d6V2/eTPbs3Wu8ApiV++vHHldK467bd5O2m26K/Bvz4VZwKfhCXTL1iJ50HM/26v7f8LgPgEOim0Xr1iu3chpJCxriXprRc3MlZALzdBcwNAFE14Lg7vjB98k3m1uMX/Rdd95JFj//3LjgJix8mKniflVPP3OyJ4d3oQAAomtAcG1Yt7MnTpB9Peqrjr/T0U5+uGuXiuAywS5Wa6eiojl/1rAVXoG2AMEFVf/ERzt5qoLbd/gw+dKFFzrhTpidfUfZuuUUXPhHAcgpUkHMvUA1SrBpYMy6tSW4jG9s3WrUnQDBBQCYci8oPaPbelG26maxezf52yuvGBPc3zz+OAQXAKDX0lVxK7BpYGkJrs9Xr73WiOAynh0+BsEFAMRS8La6LnIKrvRc3LTFNnQdkb+Hfbq1ay8gzw3xLayLcSssUMHFyyEAwDn3AhPcFvoZ9YU45njpxQ9hofOX9r75xpvkoV88dO53Fl9hX6mUesVEhWIUFdwX//JncmZxEYILAFjlXhgLiO1S4BMUzbLOjP15std85ZoVv7sQ0GZrUyO34Eb5cU+8M7ssuAAAEGXprnA30A+bY7kuIMAMNpG/IQ8VwgS398AB7uPDflzbYlsoFFo0J1n2XE62r2PVu4K0lx7TMrGnlEbd6QZDXPK0n86QmDL5cZwz6c3NNtZXbdeBTdFl+B1tIvBbg++T/WVfH/nH669rLcT6Sy8l773/fuYEN+hWSMOypZ3HSGB4mq418aN5ddKvozFCfIzm32GhLiuWQzPMgCkG/n+Up3ga85fJL+mcVu9pOa5+lSIPhvukRz2P2EvWgSmaKk0Zm/QqfpX18aOurqDLQUspfnbwoLa0ZBH1JbPNJBkffvQheW1yMq1iW9mJw1TQG06ha6fHjdG8W0xemy3odRRz+lQ9ZCDNOU+MZzJSr2zF5WTSlLHYQcasX/ZhlqoMLAaCC7CXeqIv79juvcy6TUtw09jk0UCevJZls4FrmU9BcHM5bdBCPTewPDxr2ln8Je4883QLn3z8caKlysSXBawRoVLQGdtWr2iA9NovfDHVF2Vp7qqrK2/RdHRes5fWOghu1fXVIVd3nA62f6LoUgHs7OruJv2PPZaYMIsQ5lu/otz743utXPw999yzyloX4fZdu8h/lv6bS8FN+xp0XHtK9TeYU8HtwhhZfcPlsXQ72X/Y8lkRd4Co+IanjrHg4iY4deqUtOAynnjyyTQ7ccmRwbSkcG5RMe+6rA1GOug6ST45nMU+qpnx8A88otscdAeIPvonie/TT0YbAaq7OSS5LWQE9/za2rQbsKcKBuK04vlzkoNwPo2LhVsh1TI0pl2GqBfAslHGhM+pJL6jf3353L/DL+R0+naDfmkZwX335EknHlNsfFwfiJLpiPhwx12vS9dxpG9OSBa/1WR5a2QrVVYQmeDdsTs6ADh7IRdG1wwH5pdmfOfmm6XO31gs5mnMtBoQ3D7N6XUIHLskKBYtBDgt5gJt75xrp0blZFnhZbvvMvFlc2OTkHFpBGG+4eD5325rE06j/cYb8ta3BxL+3i2R5t28g4ozvSETAxqylh3x5Tz0qGtlT9w5gieUo2oEMfbo7wczjxPY+3t7yRVXXil9U5Atp4ov98ziopaB7N2xTZvbzMJr1tjhRS3N5RVG9Pgy4Vx2zlMWnvyT0tHoo2wNLQNe0l3fuuuC45zWiKXDSef00nNKjl6P0RuFrt2AlYQ3uHsEm+s7+NunIo/z9zdjvt8oVwTj5fGxyPPTEFzNdBIDiwQkaBIcFLwvsBb8JZ1sdZHAtvJ99PguRTfETkuCC/LLuSAta3SlqCq8PmyubyXR9WFxGkRcDrbmAOcAobXu3vQurhdY4Q0pmVXAKXbMbRE3H7SLI++BmGsYQLO77WbIwk0xGD+kRmfCTAiTVq/xwDar1El4DnAGrVxXOo7otKs53oFT4U9Tmt0Xoo+u7EawAy0PdLgVjIjuslnR3a2cBnM36NppwqUdK7KOt769U7MQDsZ01kaBslUKgjGmcMlzaHWgU3CNiK5v8eoSTJUdfFUEF1ZuRRLfBoss/0xarSXwEmlLhfNLsjcYNHUmDIFhh4sX+f5jjancdPl42Q6+yx+LQXBcWAghSa+GNHo4OvpSghhy+YcEBJW9hGjXUC7u82RnDECsrdNuIE3m1lJewcjCOFoVXZ3C61utIsKrkm9WF0LomIJDKXkxHqSWHAuITpPAdXUIzGaQFd4Oet4wATMZsnJNLe3u0rlThRX3gglXg4iQqryIm5qYyP2oU3gkL6taARqs4qigODxPAENpRcXiuJ5OTenw3Lg6stBHPcFdp7Pf2KLGRia6hZcFHY8jOO9XlOu2bcu96CpYENoWNFRgJ+dxc5I3kcPey0KbOzjXcxxzlO2eYUFwhW+GadyA0oiHnDnR1S28LOh4JeFVcStk3cr1BEP5I9OhBQZ1QbbMRGBJZ0R5NglczpxC3Yk+VfDe4JoD+ZSTrF+2+SITatlyWaBHsn6PCtSt7M19VNdYivrU2Kxl3cJ70UUXrfiNJ5YDrFwzYs97X9NkUfOWqyUwAMsOV6FokPMGz/qNEye2+aLQCsYqiz2x08VCsTqusZ1peOcGFQ4dOrTi/0X3OQuS4RkLaQtuh0CHawycx71aTYHRLIhKjoOcm2IqbpVhihyx6l7wYTs3sPgIuvDdCZXCRfKSs9CNqgRDP3JF+4oQPCsLD8JWuMPCW8hz/jqFTWRRjeU67kpFdJefpRJiK8gILwsXCax1njFBt8J2SXeELuEtRQhMk4P1WshTviauIy74kSttW5NWIWzv+BsHVp9xM+53nphlt1EdbjgggGMplLsnokyT3rXMOCgctkRwU5UI7k6Xr8N47IWsCi+IZSpiR4UtklZUKuEpK1nXLIyki5avYfGt99IvV4FlW3DUf+uzql9pCWKuApv6xWYiVKuVm7Eg5j5jcStyeHclDs+PdWA340mRVWfe7IcWzWUYUBE7L9SkaOSzbppnn0KeJdFrMtDWY7pWidnsh1FzxFMXXQZbQaayoCEPogsAqA5qXCiEjnCQMjQ0XIUeAADIn+h6FrX1PGfffQ89AACQT9Fl/PyBB6zldXD/fhvZHEEXAwA4K7r/fOsta3ntO3DAeB5nFhe70MUAAEHWuFYgnTF4q4VgDIEoRN7q+mmZjBeqcl06yhVId15H1KzAjIHx0LS51OpMtZ5c6ge5G88uzF4Ic/XmzWTP3r3G0re1GELjdLGlBNEtiKblwmTyuOtSKV8wXcV0KsZsTav+dLWfS/0A7oWcuRlcF1x/YIQny0f9llVC13KM50YTIyZaYuF6e2/5glsfruu0wiVWS5tDdB3E1GyG9htvQKuT/weD9j4tkmks6Y7XyrbmUUzCD6RTryiO7QGRm4+wcLfL1FXSbzLp8N6MAu2l6ppYSiNOL3Pz6Mg7FAazKHt+KK0Sb93UuCwMsydOaE9z5MWXMmXlGiQYDHpU1TWgsuMC67CBj5+uUjxUgeDgstZm1vZTC0Z1a5Zsp7qodrfoVtmhkjc9vjHinGnZm1AorZ6IupnPnOju6+khwPhj6oLXQVoEOlvZ+2dT6HFXNlxjT+Djl29AYhD4g2cwbCHpGvhpWXkaBIvRquiemItwBwkFPzLQb0Us1Ymo8svehAJp+EGTFkLprsuc6DLuVwhMHsbGC7QMLvuVGTD+XmgTOgQoNAg2KVhQ/uAZ8G4iftzfHQQQjbELwjeeLSlcS51DQXv8MnC5xta43lHePn48S/26KWfjuNfAYGL7f6kmM2pooBdsPlLnqd3zRE0WCqnjpdpP9uyxYeVO5qTfTAWEqORFUmKugWJaBYp6hPZEsldSKGeizhPZZt5BN4MWP3SgzftIRKxiW+3tfRqz1g6ZEN25efV3IocefhhuBX0Wn9/Re0KPmcOKA0iHq2IsLBCS6RQrPE77rpUFGeswDZ9wwMfYrpJ30NL30piTqWPJMsxEnSu4+KW+Qhu02hw/zrsXBp86u7UP88dSYXOyjJYFd1zz+X6nnRcdgJ7V1xAa2DqupUNk9oEXa3g8KR96XJdIXNkK7oQjMlvCMGHy3CY9gfobs9X+Xn7+dTC/ObuGRsV0dLd77E3Qe2k27f10THR6odenCsFFL5rKHzWGKl6jkyvSGEPDw+TUJ5+ExU0qrbr6evLpZ5/BwgUApI5zlu6np0+TZ597LvJvstYuBBcAANGNcSVkgBkquEV0HwBAJkV35IUXyPsffMB1LFvGe+z3f+BOW/fcXFi3AAAVUp298O8zZ5atW17BXRZoC8t4KxniEFwAQGYtXRVXwrsnT5LLNmxIPG5qYgLWLQAg95Zuq6rvdmOxyHXcddu2KYstBBcAYFt0xzXltdDf31+gn7EM1MsxiC0AIC3RLalm4oltnc6CJy3rfemPL6hYtx3oGgAAEyQujmAoLJDYTsV21dLQ82trtSy4iJuzKzFroZ6mN48uAQAwibEXacy6zUgdjFOxbUFXAADYgOtFmoiAeq4EK4J7cP/+yN95Zy14rgQILgDALfeCT5ybQURodbkXPOGUcS3AlQAAcF90dZGi6GL5LgAgVdbk5UIxBQwA4AI1Wb+AW7/33SQrdxMEFwDgCpl3L3hWbJToLtDf69DEAACXqEr3AixbAICr1FTTxTz04IP3QXABAC5Tbe4FCC4AAJauSTzLdhxNCQCA6Jple8CVUCLeFs0AAOAymXQvwG8LAIClK0avrNhCcAEAsHTNW7vdVGz70FwAAIiuWeHFAgcAQFWR6os0z1VwJOJPTZ4rAYILAKgq/icAe/cfG0eZ33H82RBI+BXb5QIch/CmPem4Hm3scqDjJPBaVSsaQIlPSAckd3ZoxJUmapz0ULleITYRPyooce6SIqrcxUaJD05R7PyBlRZa2yD17gKpbQg9aLmzg0IgSU9xnN8ElD6PMxvG49ndmd1nZp6Zeb+k1Sa2d3bmmdnZzz77neeJNOkCui1YcEebvFvj4yFH+vpe5s0dAADCLmBkuB2Td7WaFtclg28LrQoAAGEXiCrcZuXdaJDPIQMvFeEAABB2gdACbpvwV5pA4AUAAIRdGB1wx4S+8oRyLJWBt5M9AQBAvM2kCWBIuFUXiR02aJU2yxthFwAAwi5QdsBtlXfraAkAAEDYRVIC7oC8a6AlAAAAYRdJCLemlScAAADCLlBRwF0k73poCQAAQNhFUgJur7xbSEsAAADCLpIScMflXRUtAQAACLtIQrjNybt+WgIAABB2kZSA2ynvmmkJAABA2EVSAi7lCQAAgLCLxITbrLwbpSUAAABhF0kJuG3ybg0tAQAACLtISsAdk3e1tAQAACDsIgnhltnLAAAAYReJCrit8m4dLQEAAEDYTUrAHZB3DbQEAAAAYTcJ4ZbyBAAAAMJuogLuInnXQ0sAAAAQdpMScHvl3UJaAgAAgLCblIBLDy4AAABhN3Ehlyl6AQAACLuJC7lnaQUAAADCbtJCLj25AAAAhN3EhdxOeddMSwAAABB2kxZ0KVkAAAAg7CYu5HbIu5W0BAAAAGE3aUGX3lwAAICIzKAJCLoAAACEXRB0AQAACLsg6AIAABB2CboAAAAIFBeopSToXjTrovP//uT0J+wsAABA2IWvoNsa9TpUV1eLSy65uKzHHjhwUHz22WfsyABkMplE9/afPXs2k6btLbX9AADCblKtC/sJ51TNEZddeqmWZV111ZWT94cOHRJnznzK3gQAAIRdnLNgwR1tYT2XCqUXXHBBYMufO3euOHHipBgfH2fHAgAAwi4mrQlqwSrY5ntdw6JKIY4fP0YPLwAAIOxCv8svv1zeLot0HVQP7/79H7EzAua13tNvHWyldaSV1N1SwwoAIOxieri8cq64cCa7AwAAgLCbADNmZMTVV19NQwAAAASZuWiC8Fx8ySXimmu+OHkj6CINMplMmyqJ8HDr9LncFo/LrfSWZS8CQLzRsxuwK75whZh10UU0RIoVqWGtljcV8sbkrS0h4XaRvOsp46HN8rHN8n5QtleuyPLDHsN3VD6nuh+R61XH0QwAhN3UozwBRUKtuvXafq7Gd2tJSMjVFUIb5LJyMlgOOJafVcEzwk2cL9dhXK5XNYczABB2U0dNxfuFK66gIZAPtm3y1uoItYuSusEB9Lbm5G3A8TNfQTegUS6qOLwBgLCbGsuWLVM9dAvVvwm6qQ62w1Ywa7EF21aaRqyXgbPVCpQq/K8xdD0H5a2B3QUAhF2cC7gqyNC7k16d8qbqSo9YQVcdD1ma5XOMsQsAIOzGK9yqC1KGaIn0mT1r8qJC+4eb9eJc720LreOqRgZd5pgGABB2YxBwO+TdSloiXebVXic2Pvec88fqWGijdYqjNxcAQNg1P+COybtaWiI9aqrmiK0/+9m0n7/W3y+eevoZ9c/Bvr6XCboAABB2YxlusyLaYYwQgX/euEFk581z/d2CBXc4f9RCi8WXGr7M458ylBgAEHYTE3DbhLlXhCMAC/78z8SK1sIDI2zo6BB9//aK6+/6+l4eowVjrZ8mAAAkPuzKgKuGhZrPbk6P7u6torq6eGfdt5qaxKnTnxT7k3m0JAAAhF0Tw61KOYfZrelRqPbWaXx8XNx332IvixyhVzf+uGgOAJCYsCsDbou828yuTI+vXf8V8fSzz3r626Hd/yV++Mgjnpctg24dLQwAAGE36oA7IAye9eiO228XTXffrWVZ7/76XXH82MTkv0+cOCE+2Lv3/O9+89vPr7H7YN++RB+ot33zm+Lhf/ih579/qXur6NrS7es5ZNClNzBlMpmMr3MJPcYAQNgNKtwaX57w4PceEDfedLP25V7/1esj2Z7db+wSj6xpj7RN/fTgVhJyCboAABB2CbguHmtvF9d86UuJORh+1NEh3tqzJ9J1+OKVV4qfdPqvSvFbrkDQBQCAsBtVyLVP0WqcjnXrxGWXX56YA2DF8uXi1OnTka+HDJxlPc7HhWdu9srnzZqwHzKZzNkwl+f8Or6S53c+NqCv+keEj5FV5Dp1yvVoKfE3at83CAAAYTeEgGtsL+7sWbPEho0bE7PDVQ3wM//0jBHr8vjataL+xj8p+/EuE0H40SSDbi+ngHiQwbXOZyBvln/frHk1atgTAEDYTUTIvXLuXPHEk08mZidvfaFL9L/2uhHrUm6Zgt3ie+8Vh49MlP14yhZiG3hlfs2o0TKGQn7q9fK5W9kDAEDY9Rt0z5rUEF/58pfFQw8/nJgdu3r1ajExMWHM+hSbqterci8+s2mUQXeAl32sA6+aKOb8hxUZflvEuamddZUjDMqbKoHopLUBIBky8qQedsg1ZlazxttuFYu/25zIHXvs6FHRumpVRcvYv/+jih7vdcIHLyosWRhh/FwAAAi7QYdcI0oWmr+zRNzakEvNDpbtHnrYbV5yn/h2+ReNTfGXLUvFRwcPEnIBAIC5YTfq3tzv/+33IxuvNs6B12/Y7e7eKqqrq7Wsc4WjLOyQIXcRL28AABB42I2qNjdpQ4RFEXi9hN3Zsy4S23t6tK7rt5qaxKnTn5Tz0HoZcofZ2wAAIM9+gZq993WpvHXGNegqbvWq11177WTP4xW/V5PYWt1C1LbrnFJYx6gKTmOjo+Kvl6/w+7BVMuB28FIGAABuCvXsFprYQSVIT8HCtNEW7ObMmSOedUxD66Xnc9OmTbHe2X57d916dm+qrxPtjz+ufd389Ob+6o1dYuLo0cl/nzl1imHEAABAQYWGHssXXjrHtFxn3Zya5K03DkFXcRuS647bbxcv79zJEVFAUCFXKTXSwmeffSr+Y3CQnYDwewPOzbKmbmrYswFaBABieC73UbOrwuxCr3+8s69PbNu+3dgNdxtXt1jPpyoDeLStLdY7u5ye3SBD7kOrV4t33n3P9XcHDx0UI2+/XXIZce/ZlWHKmKH4fFKfPjrk+SMRs9DJ/VDuaDGNSQ/Bsm3Uia9F3mpjvBmr5H7qcNm2nLzrr3ThAU2RrWvfrQl6+zRNd67ttSTXRy3HpKnA1fmyLapzhe7p6ONGHb9+JpWwX91esuFuX7Bg8manpqrdsOHH4tTp05Fv/Hvvvz/tZ2rUhkJT6eqsd42DP77hhkDLNtx6c4dGhsX//e536fiUea7HcDTGm6DeSBrkdjh/3iVPLC0x2g+d8q6SAv5+qw1G1JTGMT4e1bqrN+KqJL7RCaSGocGuwXauiPU5M2bOt225M6jl95j6pLzS64PU8F8bNm6c8rPdb+wSzz3/L5G0gppG136hWpqHJ8sLeqpk+0VoaS1PSPin7Ga5ffkXlbHT7AYw7fB8a782xaG3W1ePpuGakvLNAzwd03H9lsx+zlQG5XGbY4/q/ZCrc+gxbQtSIbT/tddDaRC33stCX/erut6mu++O5Y5fsXx50R712bNmTfsgopsqW/jPXbvErjff1LbMOJUx6PpKkdBR8X4odAGuLkfk9lYbePzpDvixeaMLOvRTxhBdGUMFJUhxsFe2SVbDcZCmMgbXkqWZOpZszY426cHvPSBuvOnmipanelvtPa77P/xQPPHEE4GUP6ieZef6qt7Ng4cOTftbdQFbHMOuar9ibRfGKBMXzp6d9l6HNNdM9cjt13LSjsl+qFLPY0oAinGPVznqZbsz1nZ6zqtJP7ZrbeesGnlsj7PXy/tQpqVnV4bdTuGoewv66/DH2tq01dH66d0NKxzqVGhbwpp4I8iga3rPbsqCRlmfuEPaD74usNUosno8DfXIcVJWbzo9u3q2L+ye3YT35mo/1lLQ2VLy20NdYbfo14JhhMNKwq/b+m16/nnxyzfeiH3gdQu66uKzv2kNvpType5useT++wN9DlPDbpq+MjY9FJhwog97u1P2TULZPV6E3fiF3RDKkOLA1wWxST4feC5Z0hR2PS1EjXYQ1kVgfsJvoXrVUkN1mTwlcaG657BC+jduvknsfuvtwJ+HSSUCf7NUo7Co3lgtw06FGQqsde8xqDkD/4o9xAvPjljHxUCch14j7MYv7Bp8LGXlnTqeWkRIw575qE1n/4QZdvPC6lnMO3b0qOv0waVCoNeRIkzr5XUL6WEG8zDrcwm7oZ7MO0WFX4uHFQoM7skIrHZZbrN6k90cwKITe3U4YZewG6fjrNxjj/0TUdjNC7qutxC3Xs9Ck0Z4nYghjNEMygn0YU+GEfaFaITdUE/YFfeUBh0KAqrlU72YWr82DaIddAf8NIxPS9gl7EawT7SXuLF/DA+7dlH1jtpDYqF18DvzWONtt04ZTSJIf/+DH7iOHBFFm0Yx4gJhN7QTdKcwvFc3iIsB8+scUEmEtgv2dAbdSveTFSBzBh2+nXKbxgi78Q9T1v6q1Fih4yHkfaO+3l6naXFFL9Ai7BoUdqMOvcWsXr1aTExMlP14HcOx5fVs2zY5BFoxYZeJjAwNia/fcksk+8bEsGvgVJWRCyHo6i5baJfr3BbC82hpG13rpSHomlg+UvBNmrAbu7B7NqjXdkT7R9s3UUWH3Urf0JfTjqWZpq1hvhfVpND77LPP+u7dtZus+y1Q+6vKDP7g9+ed///Jk6fE/o8+0jqyRJCeXLtWPPr446Q5FLJUnnQ6TX8z9/qmoX6nuwfZeiOqZESBtqC328M6jAlNFzECKeoEGJevHfXV8jpaQ4uCQxDONHWN8+HSlBEPmpcsEV1btmhfrgq1OsYLDrs2V/mrBx4QP3nhBV5eCDXgBthb4Wk4H/U3AdTdHZbLLPdCsFxUOzol0w4DQQbeDvk6IuxWrmiHwUzT1z5fTxt16L01l5u8KTontNAhirYJa2gxxNJmefLOjwowT3d9XEBjGPvqWbWGEMtoDtwNJs28FsGHDQAIpJNiZly2ptRFZGGy96CuWL48kGmMvYqiPWprrxP7DxzkJQYvRmUoUvdaLm4IYkD5SsKlVdagtktbjbYVIv20V4cIsUacWQEB7R/eEfC5e0bcNk6VN1RSP6ubGm5MBU41YUaY1IgPUQTd6poagi7K0W8F1UpDoM6gu1RHL6pVelATVXuVmibTR/v2lvh9ztoHBN34yNEExtPxLdVIytqsy++527jRGPwycfSGYsOBxXmboxharJQkj8Zg0tfZGmszfU1zaQthC6PqESgjkIfee6GxjXzvn4CPu8Cv8tfxHAaPxhDKKB2MxsD+Md0MEXOql1eVEphETZQRVG8vQRdRUCc5TW/ovnoFrZO0zqA7GGQwsZbdrvsNUd46SjzvIk1PN996Pr5ajfhDjqYP3Tq0s4e175thjcfMKlo0BWFXUTWzKvQ+/dRTRq3X9V+9fjKc6gioarQFgi4iPkFnQ3yulgACRE0Y096qXqMAAvXKUu2h+TmHrNA7noJDu0vjh5I6Q16r6lhp0HU8c/bTsk9y1jGisxSoS9fENITdGHnv/fcnQ+/Ovj7j1i0fetW0wn41f2dJ6MOKEXRhO0nXWSfo0RDfqDdrXKQaezFT7ji2FYQEFT736m6bYh86AgjZVfk3aNttQNNMVkaQbdYSwIeEs1bvXV1Ir5kW+z7SuGh6Df3vi2o19rX6oOjYJ7qH6GvXfOwme7/EvWa3GFPG6HXjta43ym2IQ9BlBrVYhotMgXbLBhCoA6/XjEjR2lqOQe/HQAKOhUiOsQDaLqya3STwNVRi2ttNvefMSPIGquHKTBq5wS5f11usp1f9nqCLhNlR4GQ8rDvoWr25AwWeryPmbwDzi62/KteIy3i9pn8IS6kuky5UxJT9Evq3VDFWn39dz0jD1qrA+6MOM8ta8kOXuQXdqKjhxYCAAsWiAr0OOoezWu9hnviVSWhP6yvSlhKBnxDnL/AuTXsb8PW4cUbYL77kS9eG8z+YkZYtf2vPnsnQe+zoUSPXzz56Q5RBV00YcfzkSV4qCOTk4whq2ntXrRNca4Fg2JLQr/M2l7qQzBZ6RzgUSx5DnSkNvfP4YGSceuu1Sy+7d6rEo3ra+T/JNbulwiWmiuMUwNTsxiI8ZFzaSPc5Y698nmyRfZKWmjXPtXwpOk4rHh80wW2lZVxlana1B9xhze9JaWi3osdyanp2XQK6kaM2RGXhXXfGLujC+NCVcenNzQVw4p1XKOjaRpJIi8OlZkKzfQjJ5feRtZ+6OGw9t1Wce8gbbdtCj6FZ+yOjO+im5PVZ8liekeYG2rZ9u7EXsIXpybVrRd8rr/KKQTm6rLCZcdzGXYKn+pnW4Xes5xorEHTV8w2lcJ8sLCfgq3pAl/2YnyTjCIf6lLaqc2mnelHgAsyI7Cjw2hxgD4ZuUN6a3F5f7I/K3n+8lt6ktoxh2ker224Vi7/bnLoj5aXubrHk/vtju/4mljEAgFfWWLz2GsOsdVPGrFs+ZBOMgHJeZ4TdqdJUy3vg44/FtdlsrLeBsAsAAIqZQRNMC+6iZ9u2VGxr3IMuAAAAYbcML+/cmfha3oRMGkEdIQAAIOyWy+RxeQm6k7iSGAAAEHYroaYcfqytLTHboyaNSIozp06NcYQCAADCboU+2LcvEWUNi++9R+w/cDApQdfEySTOVnILY514NZ9vl7Yy9tG4acdXzNoxm9JjzbR9xjkBhF0UFueyhlf/daf4eU9vUnZFI0cjIlAVVUAo9JxRhRVbO6zx8bBR63HVHEoACLsGU2UNW1+I30RDf7FwUVJ2wfozp04NmLhiBQYMz5T7dwjVYKH9UmC641yIwXKsxO87Iw7eIyXabr3j7w+n6cDidQ4QdmOp/7XXxerVq2Ozvgm6IK1LBt1WjsCKgspwia+aF4WwDl6+8jb64sOwBveX7dAi72ptP9rrEpiawwrfLkF3falpOuXvW8MMfF6+pg/zq/yQn6suinKpStYniaUUppRFqfO5x3UZDrlNWkusT0ep9yrCbkgmJiZiUceboKDbLoNuC0dexeYL2xSi4twUp3Y9AZ7sss6TlCMALbX9aijkGtkGjyfW9pB75zY72iubbzfnZ/CIQj8fPs0JWJ1i+vTYNbbX17ywA59jfboKfeBJSnlLPsQV2QdNtp9XBRn0rWX3FFkX+9TW80Ouq18nHN8IOX6/0nqvWlXg/cF3CRdht0ImB96Fd92ZlGaeJ4NuG0eblnCiThxjtv+rT/SDjpNILqCnH3Wui+P/nY4TWpWBPbxrwuqJcvtg4PiTik7+IfbiuN0GeDVq1+zyWh+3/X8srA9qLucQVSbUUuJ4TkJ5y7oS+6A3jG85XHpqV7msyyKX5x8N8b3IeW4fdPxfdSx0ON4fykbYTWjgHRkaEn2vvBr7tlWjLjDEWDIV6EHd7PizsIrNS9Xs1oQZLN2W76GtRARfU3cU+FWj4zbCEZ8qzrDbkIbyBYPMdwTLDsPWb9DD32j9QEzY1Rh493/4oTHr8/Vbbol7k+4wcXgxaP1kn/FwazNkXUMrqaj0grMgL1hz+7rR7flUTbP9Jn80zhGfKgN+Pkym6eI9VYefr9m1alOzQYfJsC9iNRFhV6NH16wR7/763cjXI+51ulZv7iKOqMSZ1jtqXYCV/39bhD0/DT4votkb0Buh+mqv2e+HAsdiAr1grcDz5dtpTJUoWDd72zVEGC7O2v6dTXCPYqPL66vX9v/hsLbd+oCz1/n6clk/+60zyGMgpPOK2z5Qr4Vq69gbE59/I1OlPizay8o0tn+uwGu01VqvnFtbJPkDB2FXk+4XXxRdW7aIP6qvEy91d0e2Hn/amItzM9bTm5tcqnfUOpnav9LeXGDM1vWmnnitgJkNaPFDxT4gFHvtOP7fH0IbZFxCf60VbAuF20brsWGGcfu4wKom8YhI4FjdVi+6c9sX2rZdfbU9KLx9haxjfbIFPuCeLXChakuC9sGUoC/O1SOPiqkjqwR6satb+ZW0zmp75/mhPuk96+oAq3ghy5YtS13tzfETJ8S27dsL/n7LT38qvn3ffaGuk5o4Iqbj6S6VIbdTAAAAEHajs+edd8TuoSHPf//mL34h5tfXh7Z+MSxfIOQCAIBAzaQJiuvp7RUTx46V9Vh1kdi+sTFx1dVXE3SnqpEhlwtWAAAAYTdspcoT/Lo2m1UXXAW6zovvvScOTUsvLgAAIOxG4b3//R/xy1/tCmz5qtc1yMD7855eU5tWXXA2zBEGAAAIuyH79/5+sS/EcXGDCryGlS8ckdtYzcsKAAAQdkN25tNPP+1+8cVIt/eGr/2h2PPOf2tdngF2MCYuAABIethV4xZWGbh9OzZt2jQZxC6cPXtARDiwufLeb34rntuwUTy4YnnFy1LTAavlRaRRBtwBXj4AAMB0uoYeU/MurzRkmxplwJ0WxEwIu3k6yhkiKF9gBAUAAJDOsGsF3ijH2q2RAXe8RDg0JuxWGnhra68T+w8cDHoVB+U65niJAACAONNZw9olHHO6BxnEZLiNdRD7u4ceEv/49NO+H6fKFwIMugwPBgAAEkVbz66ybNmyNjF1fnutQUwG3LKDmGk9u0o5vbsBlC9QngAAAAi7PkOvCk+VXrC2V4bbrK51MjHsXnrxxWL88GHPf/+Nm28Su996u9KnHZHhto5DHwAAEHb1BF8vF68NyluLDLdjQa2HiWFX8Tqd8IGPP56cja1M7TLgtnG4AwAAwm5CmRp2FS/lDGWUL8yTyx3jEAcAAGk2gyaInuq1LWbxvfd4WcxeGW4zthtBFwAApB49u4Yo1rtbpFd3vXxcK4cxAACAu5k0gdmqa2qcP6qXAXeYlgEAACiNMgZDLLzrzmk/U2PqHj958oijPIGgCwAA4BFlDAZxKWXIcIgCAACUj55dczQ6/r+eJgEAACDsxlmNrTxhQP6/3fY7LjwDAACoUJrKGHLyrj/i1RiUoTZX4m/UDmmSt14OTwAAAMKun8AbxcYulQG308ffq3WkVhcAAECDVA09psoFQgq8qjxhvMzH1nNYAgAA6JGqnt08GXhVEK3SuMgRGW7rOJwAAADMksoL1GQwrVa9vGLqBWF+DDrGviXoAgAAGOj/BWDvfoDkqOu8j/cuQaKS7K4ahMCxk+e58s9Jmc2jIF6V7gTU4tl4ZkNRdfLH2w2mgj5QZhehBD3ZWTgOq06TzUkeTiqaXYR41OVI1ke2guLtLJzKI4e7q3CAHmTCEwIkZ+1uIrIhnPv8vpueOOn0zHTP/Lr7193vV9XUJLuzM92//jOf+c23f79U9uwi+To6VjVbx0a0yFonj688pG65kZEHC7QUAAAEXSAO4Taj7vLq1urjz/pV4M3RegAAEHQBEwNut7rbVs9zqLDLyBcAABB0AWMCbqe626nr+Qi7AAAQdIGoA67U304F8dyEXQAAkoOpgRG3kJsPKuTaz5+jlQEASAZ6dBGXgKu1TKESenUBACDoAmEE3MDKFCpYo8LuLlofAIB4o3QBJofcXRGEXDFA6wMAEH8LaAIYGHCz6m40wkVoZSsAAEDQBXSH3Gl110RLAAAAgi6SEnClTGE1LQEAAHThYjREHXCzVrRlCuW0jIw8OM0WAgAgvrgYDVGG3GlDQ65oYwsBABBvlC4gioA7qO66aAkAAEDQRVICrvSSjtMSAACAoIskhVxGUwAAAARdJCrgyuQLG2gJAABA0EVSAm5G3e2hJQAAAEEXSQq5BYvZxQAAAEEXCQq4OXXXR0sAAACCLpIScDMWZQoAAICgi4SF3IJFmQIAACDoIkEBN2dRpgAAAAi6SFDAbVZ3U7QEAAAwXSNNAB8hd4KQCwAA4oIeXXgJuD3qbhMtAQAACLpISsClTAEAAMQWpQsoF3LzhFwAABBn9OjCGXC71d02WgIAABB0kZSAS5kCAABIFEoXQJkCAABIJHp00x1wO9XdTloCAAAQdJGUgEuZAgAASDxKF9IXcncRcgEAQBrQo5uegJtVd6O0BAAAIOgiSSF3Wt010RIAAICgi6QEXClTWE1LAAAAgi6SEnCzFmUKAACAoIuEhVzKFAAAAAi6iQq4g+qui5YAAAAg6CYl4Lapu3FaAgAAgKCbpJBLmQIAAABBN1EBd0DdbaAlAAAACLpJCbgZdbeHlgAAACDoJinkFtRdKy0BAABA0E1KwM2puz5aAgAAgKCblIDbrO6maAkAAIDaNNIERobcAUIuAABAfejRNS/kMmQYAAAAQTdRAZdSBQAAAI0oXTAj5LYRcgEAAAi6SQu5WYspfAEAAAi6CQu53epulJYAAAAg6CYp5GbV3TZaAgAAgKCbpJArNbn05AIAABB0ExVyZXQFanIBAAAIuonD6AoAAAAE3WTp6Fg1RysAAAAQdJMWcvO0AgAAAEE3aSFXLj5rpyUAAAAIuknDxWcAAAAE3WTp6Fg1TSsAAAAQdJMWcrPqromWAAAAIOgmDZNCAAAAEHSTpaNj1S5aAQAAgKCbRKtpAgAAAIJuonR0rCrQCgAAAATdJGqlCQAAAAi6iUJvLgAAAEE3qejNBQAAIOgmS0fHqkFaAQAAgKCbRF00AQAAgBkW0AR6dHSsypi6bKeccop1yoJT5v8994c/WEePvsEGAwAABF14ZswEEW89/a1W0+LFVR939I03rIMHDrLlAAAAQRcVLY/yxU89dYG1ZMkSf3+zYIG1dOlZ1pHXX7d++5+/ZQsGoKGhIafu+pK8jnNzcw1pWl+HlWr98+zpAEDQTayOjlXNUb32m057k/WOt7+9ruc47U1vmg+8+/e/xMYEAACJwcVoeuRC33CNDfPhtN6QW+rMs85kSwIAgMSgR1ePDWG+2Nvf8fb5Xljt4bmhwVq0aJF1+PBhtigAACDoIjwLFy603va2lkBfY9Gi0wm6AACAoItwSJnCmWeGV1awuGmxdWjmEA0PAAAIugiO9OBKT26YTn/rWwm6AACAoJt2HR2rskE8r47RFAAAAAi6qIf2oCujH8iFYVGScXmZQS14pWPQltPQ0DDn82n71fPmal2mGl6vdH3kdXNsWQAAQRcniKJMoZyFC9+sgi4XpQEAAIIu6mBimYL06AIAABB0UTMTyhTcNDQylwgAACDoogbNzc3WW97yZhoCAACAoJsMUhKwZMkSGgKp0tDQ0KzueqwTL97M13PRnON52+TzY52LmVe3glqmQbYYABB04ZOpZQpAgOF2Qt1ayzykXT2mz/53iwqY0z6eW553ueZFbrefe5v9/yG1TN1sSQCILwoxQyAzjS1dehYhN4Wkx1KGECt3czy82741x3mdVVDM2EOUTVUIuU5T6m/aPDx3zn7u5SGsSpe8lh3YAQAxRI9ugE455RTrne88g4ZAORJqO61j485KD+Vg3FdIhULplW2q8c/H5SkqPLe0T1cEqzVVabkAAOaiRzcgEnAJuXDRUxJoB+2gO5GAgJu1e1qb6nyeXWV+noko5BZff45dFwDihx5dzRYtWqRup9MQKNVtHbsIS+4HkrZymntaV5f5+R52IwCAX/ToaiJlClKHS8hFiZx1rN520A65SdVl4DKtrVIb3VJDoM+xSwMAQTd1KFNACQm02ZKgO02T1EfKInz+yWS1IcLsER6W+XzeTrYGABB0U2PdunW5pUvP6pPeXKSa9NoW1C1jHeu9zdMk84bUbaWG5/EbdHd5eZAKuwWfz7ucTQoA8UKNbm0BV4LNFC2RenJh2SbrWM9ghuY4IUQeH6WggWH1AAARoUfXf8idIOSmXl6ynHWs51BSXIEmOW7SZXxgAAAiQY+u94Bb7L1DOmWsP175v9by/3V6GjCTGACAoBuzgEuZQrpJcCtOCTtGwCXkAgAIukkJuXl1105LpM+tuT4JbaMlP5LhqBhBwd0MIRcAQNCNT8CVN+1ttET6dF11hfWXV1w5/0/7R/3WsWHCUIYKuc20AgCAoGt+wKVMIaWu+9w1VsenPuX8MRdVAQAQY4y68MeQmyfkps9NN95gjYw8eELI/c7ddxNyAQBIgNT36KqAK7Md7WRXSJeSEoUTXHn55dbUzCHr6vXraSQAAAi6sQ24lCmkUMcnPm5d19Nz0s+np6etK1yCLwAAIOjGLeTKQP+r2fzpcf6KNqv/9ttdfyelCjt2DdNIyZFpaGjI0gwAgFQFXRVw5c1vlM2eHi1Ni637vve9sr//bPda66UDB5w/HqPlYq3L+uOoGQAAgm4qQq6MgdrEJk+P7dvvs5qby4981dGxqtyvcrQeAAAE3TgEXMoUUkZGUvjoypVlf1+tHndk5ME8rQgAAEHX5ICbtShTSJVKdbjHQ+z3v2/d+Q/forEAACDoxjbkUqaQIgtPe5P1wM7qI8R97W9utx756U+rPWwzLRp7Q+o2SDMAABIVdFXAlTc3LkJJkWplCkXXfv7z1p69L1R93MjIgz20auwV5ubm8jQDACARQVcF3DZ1N87mTI9lredaW+66y9Njy4ysAAAACLrGh1zKFFKm2mgKpS5ds8aaPfK616deSesCAEDQNSHgDqi7DaYu37nnnDN//8K+fexlmnz0z//cuumvv+L58T5DLqMtpFBDQ8Ocn8fPzc010GoAQNANMuBm1N0eU5dv4WmnWXdu2aLt+Z54/OfH//3M008f//f+/S9Zr83Ozv97+tAh65C6JZmfXlxRYYzccvo5HQAAQNCNMuQW1F2rqcvX9ZmrrI+0Z7U+5wfOv8D13zrtf/FF66X9L54QqI++8Yb11JNPWU8982ykbeq3F7fGkCu9uTlOBwAAEHSjCLgSQvpMXb7FixdbGzdujO1OsPTss+dvpYH6hi9+0fr3iEOu317cWkOuRW8uAAAE3QgCbsYyuExB3PDFG6z3vPc9idkhdu7YYT24e7d15PXXI1sGPyMqlJKa3FrQmwsAAEE37JBr9NS9crHZLbnk5KPfHT5s9fT2Rr4ct992m7XiA/+jppDr58KzEms5DRhvmiYAACQm6KqQO2dyow1s2mSdvmhRYnaCL998s3Xg4MFIl8Hr7GaaQ6705g5G3f5+r/z3oE89Z6VSn/65ublcyevn1V27puU/4bk1mfD5+OaANtUMbxkAQNCtJ+AaPfHDheefb6275prEbPzdIyPWjgceiHw5Oj7xceu6ntomJJPJIGoNuUoLpwDzySxnKkz7+RMZdrDqDqWes+BzUQbZGgBA0K015OYsQy840z1kWNRMKVMQtVxwVtT3la/UM+PZ8MjIg3wlnlAB9JJL4GZ6aAAg6NYUcgfVXZeJDXTZpZdal3R0JGaD35rLGTGJRT2lCuI7d99tPT4+UfPfq5DbyeEfKzJr3WiEr0/ZAgAQdGsKuZJWlpvWMHEfMszp0bG8NfTde41YlnpKFcT4E7+wduwarmcRKFmIGbt8YTKqc4V6/Wa2AgAQdBMRcj9/zfrAJmcIm0llCuJ/b7nTyixbVvPfT09PW1/56lfrWYReShZiG3bb7Lra1pBfl2l/AYCg6zvk5k0LuUkbMsyUMoUiFTDrfo4rrriynj+fVMswwGEf67CbUWG3W/1zWwgvF8QIEgCApAdduya33aSGSNKQYSaVKYizzjjD+vZg/bmkxlnPSoN2G4d8IsKunD8GVeDNqHsJojrr+4fkOdVrFGhpACDo1hJyOy2DLjxL2pBh4tVXf2/MstRbj1tU66xnJSHX2K+fo/5qXL1+No7rZ4fRbvsGAEC0QVeFXLmgY6cpK79169ZEblQZJeKHDz9sHTp0KNLlqHWWMycZRqyOsXIFF58BAJBCjSG/3pQJK73qkksSG3KLoh4xQupxdYTcke9/v65hxCTkcvEZAADpFFqP7rp16yIPG0mb+MFLoH9w9+5IQq4OMsLCnf/wLUIuAACoSSg9uirkSpFmU5QrKkOGpSnkijWXXRbq68lFZ7pCrqhzhAVCLgAABN1QbIpqBWXIMClTSMq4uH5Jr24Y3veed2sZWaGozovPCLkAACD40oV169bNRbVyt/b3W0vPPjvVG1h6dYMuX7isc7V19fr12p7va39ze80Xn5k8ugIAAAhXoD26KuR2R7FS7z/vvPle3LSH3CKZzjgoXVddoTXkFvbssR756U9r+dNJQi4AACglPbp5yRdWMGNRbgt7hZI08YMuV17+aeuub92t/Xl1DR9W6n9de10tf7ZWhdxBtjQAACjVMDc3X1kgM0aN2z8bVrceO/zWzJ7i15jZz85YsmR+1IX//t+WWW97+zus/7lqVao2tNoevh5/5PXXrd/+52/L/n779vus5uZmrcsodbl+Shb+8If/emP37t2nchgDAAA3xRpdGai0wQ63q+2bmFS3zhpDr1FT/B44eHD+/oV9++Z7fb2GQLmYTQLdu971rvmJGBBMyPVbl/vU009Z+196+SdsDQAAUI6zRjejbr0l/1+ubnvUbc4OwxkvT6qCY8HklXaWNkhNbzkSjH/55JPWa7//faw3tPRm6yDDh+kOuTJerte63JlDM9aP/uXHEnI5egEAgK+gKwYs9ylTnaG3UtppNXmlHx3Ln/D/qz/72ap/8973nRfrDd36J3+iJeQGwet4uf8yOmr9/N/+jaMWAADUHHSFjEEqpQyTZX4voXfKDr2Dpb+wa3ONNjp64iJ6uXjtPe99T6w39NKlZxkZcj/bvbbqY579za/ne3H/a+4PHLEIVUNDQ1ZutAQAxFO1cXTlIrVuq/LoCV32TUjZQ7vpKy3lCE4yBNehQ4cSu6HPbZVO9keNCrmPjI5aLx04UPb3r/7+Veunjz2W9CCVsTyWBEVlbm4ub6WE2h67rD9eo1D689L/7pVzo2qXVE9KErMPANNqe00EtA4Tpu4LmtavoNavUOE1JCfUXc+m8zwT4Xm1YltFtA9o2T5JDrpiUN3k5D/l4bGbZPza3x0+bG38xjdcA6WpPvGxj1k7HnggsRv6LW95i1EhV3zt775e9ndSppCSHtw9MQg0bj/uV7eBpIQ9tY5SsrXB48PlU+OU+pu9av0zSd457aDU4xb+40Rtp3JjbI9qePqV1rFhOk2kY/3kWM9V+L0cOzo6uHSOg74nwmPG+aO9do6K6nypa/vE1bDXCSOKpQwzXh4spQC35HLzkzZ0feYqI9d8/4svnvD/pI+o8MzTTxsVcstN8fv8nudTU6agTohzMV78PjvszanbhLo1x3g7TPsIuScEXnv9mxO0TzZLr7a9XnN2UFod89VqsZAaBp5XWx3nS7l1s6VCMaM+XHT6nRlNTuib/fzBR9qz84FXbpVGNwjbyA9+wC5QwXfvuSew575/+30nDSV25MjsfMB9bs+eVLSvHa6SYnnJSbw5ZttB3hSb6nyaqbiHXbX8g3ZbTCUg2JZam/YSk5SF3ImYLOo2+3w5bZcWIADq2J8/L9cyBbB8jbWilhf9Qk/PfOC94Ys3RN4Ajz3++Ek/qxTEn3j857He4M897z1AyjYK0tC920/4/7/+5F+tR36SniFxJVRoCFemmorLm43mnp+pmO6LBbsduhK4L06qN7pB3u5Tc17ttD90x4m8D4zTyxuIZcV/NNb4BMUJJmoiIxgUe3nf/ad/akyrVBpmbPwX47He4l7rpZ2TaehWWrLwwv97Yb4X97UjR9J0Ms4mNFSUWm56WUYQPepxKkVRy5q3l7c1qTuhCrn0lKXLzpgvf7GXN8umrNvm0osCG+t8Ms91u+XceNNN84H3sksvjbxlKg0z5tYDnDQScr0MtVar79x993zJQrFM4dnf/CZtPQ7yNcpoitZ3ztDlkoszmgJ67rzh26TT3i6JvjilwsVn4FxjutGElbaFTepye0p/0KjhSZtf3LfvoXqfRC4Gk8B7a3+/tlm8qtk9MnLSz8J6bdNIOUmQIVfs2DWcujIFh6m0rbBpb0D2h40NAb5Euz20kYnbomDFv9fLi5W816fqHDORwNVqsnt3+VbC/4fck66X0BF0rb5cbuGtuZyWhVx69tnWnVu2zIfec885J9AGeeTRk8eV/eSqVWUfL8OmxdHOHTsq/l5604OeEOOD55+fujIFx8k4tZ/QDevlDOPDxh4Dt0GiyxRKDKdp3GdC7nxd6/IEr+K4fU0HvHEdYaVR05O3Sw3odddeq3WJi0OUXahCUhAOHDx40s8qDTN2lwrgcfTg7t1lfydtG/TQavdv325N/upXaT4ZyzjUTVZ6tRuyHSaS+FpVlqM5YV/rVjI/lBDv9ak5r0rP3bYUrGpXQnutdSs7wkqjzleZPXJEpgDWvvTrrrnGiDreZ//jPxK1V5yxZMl82wbtqquvTvPJWN54V1spF/WJ2r7AI8yen+VRX1RiB4HUlMu4fWWJREtTKdhywm5FFUdYaQziFSXsBvE1f7GO9/PXrNf2nM6JI0SlkSAeHcvHaut/+eabXX8utch/e8cdgb/+ee/7s7T3OOy0YFnRf704mpLXTGsQWMYhlqpzayGN51D720Gc/CG3Yi1zY1Av3NPbG1go/MD5F2gLvG4TR1z5mc+UffzQd++N1Q7gVp4h7gyhDGNyfNx69rnn6XFA1G+K02l77RSVK4gThhJC4o9nuaK+NaWrv5rxdk8KuVVHWGkMcgEkFP79wEBgz68j8LoNGyYXxFXiNlqDia6//nrXnwc9IUTRBz/8YcIVStukO4LXzFnR1kc32W/MYa5zmnp9ThpKCIk+h8i3ZJtS3gzb2BOO8zR5WWPQS/HLJ58s+/W5SYHXqdIwYzseeMD4rS8lGYcOHTrp50FPCFH0ufXrU3vk2aMMpPnis3KyEbwp9hmw3ptCXOeMlaKacOpyU4dvyazUfWNTjoyw4qluuTGMpZGvz3WPyBB04K00zJgIY33qcUvfye/vYYyVW/Tte+5J7dGnDr6sfJ0S95t1rO5xs8amyaT1TTHEN6awhjYbU7e1so9EvI8iXedWk8+XMn5zv1XnJFo+zindKW97zyOsNIbVSEGNyFAp8HodpcGtFKHakFuyPvfdM2TkycAthL//vPMCHyu3qLX1XM7IyXhTKcjXwvZJfDJmPR55A5cpF/M3vrUlbzLyYW6Q2ljg+Pkyr245+ZbBPmfKmK57A3xJShhMC7pFYYXdYliVwLvyox+p+Di3iSO8GH3kUeuZp58xaoP+3de+Nh/CSy1evNj6Qk84ZWxyAdr+Vw5wZCXvJK5jhp5Q6pbt2YRMnOK2zy6niNsbX7HXdpAjAfB8zpxWt4wdesfi+OGZoFtn2A1zlrEr/6qr4kxr5UYmqDTMWNHXv/F1Y8KuXPjnNtbvxo0bQ1uGNF+AhqryIb3OuMFtEEg5RUBThQ7bAbfArgvUFXqzVplZu+r98EzrGhp0hQw/5jaGbZCKM61VutDshIBcYZgxZ9iNeiQG6cmVC/+cwhphQaT5AjR4OtkPBP0acRjtIqBREXR/iFjLLGOA1vPftN27q7WG174AFSYG3fng2dcXSW+ojCErF2aVcluOasOMlZKRGCRsRkFqct16cp3rGLQ0X4CWdAF/5a5rGaU+R+toF/Yb07DmRV0dwJuTzvVeS5kCEFjgbdYcdjlWq1gQ9QJIb6hcNFbt4i/d5MIs6e2UC8qk1vaHD+12vVhLen+dNa/lSNiUsoywelElnEv7uQnz4jOR5hnQUhJy6/3KfTiERdU9jNca+42pM4BRE2R0hAZN20dn2cJwvSHXtLpBuUCIozgR5yH5cJjRsD/kTQi7Gs8p7ewdhgddURyXNuywK6R+V27lJle4eOVK68Hdu309p4Rdqe+98aabAltu6cUtF8AlnId18Zl45eWX0z4DmtFv9DUqvqloOYkG/TV4AEF0r1rm0hKDFktzfa3MXa/pIj9t+1u928memtW0WasIusnQbempSTVlWLplVnjDAZp4jg3SZOm5dYEpSyVh99e//nWoAa1UuQu21lx2me+gK4q9u9Kzqmud5AI+KfdwmwiiVBjT+5Y6J5OxcAIuEDjR5iCfPIiaV7la2vH/afU6sh4bNL6MzF3f5nXQ8wp0TRCxss7tMGild2pWwO85pqCOGSlhqLvsSNN5JElte0IHwgKTFk4uppKRA6IKu0GtU3FItVWXXDIfnP2G2+98+9uuF5q5Cbsu9/7t2zmqUEmgU7QGNBPYsjInzx71ehs0v5aMEGFED1M9X+mqdpGe4C52d8AXCWQ6enXl+CPoWsevq7CMDbqmhl0pQ3C72Msv6Rku7R0+Y8kSq6WpyVq69KzjP3vu+T3zw515rQt2LmeYdbniqquv5shCpZAb9EVsur/6G64ynFYQJQzTBkxlO1bH8suy72R3B3yHMunV1fFUWVpz3gq3HzaauKTFsGsKr8OM+SWBVgK0XAxXvL2wb19NIVcEWRPshuHEUCUwBhre7HpQ3W88nVV+L8OX9Wt+2Sa7RzRKuTr+dordHUDENpcr32g0dYkl7H755puNWBY/w4xFJczxcosYTgwuJv3OQ15jyJXn110P6mlA94Cu4o+0R7TWsoWYXaACmEjHrGltKW/DiiVyjSYvufR4mhJ2JUh6mSktCl2fuSr011z9F5/k9AQ3coHVdAjj7uoOhr12b63XYKi9rjYOk104lpeaQKB+eZqg7g/qFd9vGk1fAZPCrpQGDGzaZFT7LF682PpIezb01x350cMcXShHriKeUkEokBN4AL2IMzXO2taru93iMjSdPcLCcnZ1oG4ZDc+R5g+dVb+Ja4zDWkjYjWrWMafTFy2a792VC8lMUG5YtCBdeMH5nJrgRbvuUKqeT3vxfq21xHY4ntG8OH1RzELn5zXVY+WTNSMsAOYE3bRa4+WbuMa4rI1ctGXSBWp/e8cd8zO6RSnsocSKnvjlrzi84CdEzWl6Hgljuof3WhFFSK4iiou7un1sg1H2akBfh4CG58insN2GHZP6xD/oCtNGY5CZ3KK4CExIj3LYQ4mJ1tZzOS2hlpCq46s13QFwUtMg670BtNeukDdRzuAQDqCyXSlb3xk/Fzw3xm3tTAu7IopSBulRDptM9bv/lQOcUlCL5fbkDlEG5RNomn43qBKG1T7KCYY1vF6Th23ACAvuMglfvwKbOLAOAC0TBqRtVjS/36QtiONKStjdPTIy36NqCgmeO3fsqGm6YL+iKll493vfy5kpPEMGvMFIENQ565icjH1/1W/XhOq+8KlF55PJiTeAICi9p15GdxjQsZ3kAjO1Ht0V1jHUGdzs7R6HMgmCLmq1KUbLOmbIcvgeunJBXPeOHQ88MH9vUtiV6X0/9OEPW7f09QX2GlGVLEyOj1uvvvYap6XwDNYzJWsAoUMK/uudk73Wv9cddjb7GUrMh5W6l1VGrlDLmq0SsvOaZleSC8y6OfR8k165nGkLpXESEoaRC2b76Co3mAxjeaudh0zWGOcdRcLuM08/Y9QyyeQSQdbtRlGyID6oAjzSS9dFV37ffAMYW7biwOJ1tlE+gDcdGbkitMHgU1ieoKOXqsnQdRvQtF9PW9B9nOn8towPp0kOuuLr3/i6cWFXSNhdeNppWp/z89dEM+Wu9OYCmkKc55BpjymrNUQEPS2xrrpfBy8H4BqNb8JpCjZ5jcHFNK0WTAy5zR6Paa/nHHrckx50i2H3d4cPG7dcd27Zom02NQnNHzj/gkjWg95c2HQEIE9D6dhvBrprgNaE1E4rdD+hao9ClTc7nVddN6WoZ3cwxA8jYYapAqcrI0OufKOlc+SSIVo1JUFX9PT2GrlcMpvayo9+REtojgK9ufAbUjXRPYzVXs1hsFLolB4W3RdutHoo++jX/KY8p+uqcFOpbVXQ2F5G9ITbs9bp6s0dtqDzw8dOzftvNy2boqAr1q1bZ+RyXflXXXVNLnHh+dHNREZvLuyTdJh1ovkAAk0m5ACVDeBpd1Z5zVwAr7kpDYFXkya7rTIRHqcSpnTOWsd213A+s78h0V1KQm9uGoOuyWFXRoeodViwdddcE8ky05sL+0Q9aIX01awdqHX3HC+LqOlaAmifar2GawNal2LglVsuimmKA6S7zfaE+eFAtkVQYUpnj3eKzpdZGVGheLxYAX0TRm+uj22iGktHuDSqnkvqWaP6qr8auXBOaoq9urW/f34khyicunCh6fvv2NHZ2ayBJzoG1q/w+anSBVsBtN1wpRl0Yrqteu1JKiqF4SZ2teOBoMGQY1bKWfL2baKW0QzsDxhy/Mg+vSHg5R32MvuU/Q1Me9Dbyb44tY89et5Kr8NP6to+cdaYxJWaPXLE+vLNNxu5bDIG7sAmb2NEL168OLKQS28uApKvEtB0h5xKITeu02ZuqrLOzexmvoXxNXC7HdRkrOWpkh5yzzfrWO36aAgh1/IzxSpC7yzI0wyerWhM6podOHjQuKmCi05ftMhT2N24cWNky0htLgIyWCZ0yte8uocSa6gQcnXP+hYqDz2QK9jVfO0r3bTCCcZoAmP31TZawfsHWLk4uDHJayhTBT86ZuYHHwm7lWp233/eedF9XKQ3F8GdpCdcQpv0QOqeCrPaMCyx38lVuw1UaefN7HFa95k0HadZWsHI7dJAK3g2U/wA25j0NR367r1GjrErpIyhXNj9Qk90F7u2X3QRhwjCpHsosRkPNaxJsKHSRWH2DHBcme09RMg+M0NLzE9lDfO00AS+jufj58bGNKywqWPsFsOuc+ixeoYiq9crL79svfraaxwlCOUNNIg62Uo1qkHMtmbyhwS7R4Owq2HfSYkx6j/NDLlMxVz7h4LGtKy1qcOOCRl67Nxzzjnh/1G54EMXcIggqBCRd4TOIOpkV1QIuUHMtha5auMO22F3LXug5/00rV8Pz1CyYOb+SMj1pd/ZXo1pWvvrr7/e2GW7JZebHxZNhhOL0v5XDnCYIPBP2DbddbJjVeZ9n0po27ZXm9BDtcugFd14woRd803Sm23kNqEm15+9bhPnpCroHjp0yNiRGISM/RvVcGKitfVcDhMEYa3zE7Y9g5PucJIt9zv1ehMJb+NxD+1TsN8497JLeg67aRh9YIgr+Y2zhm1S0zGbcft5Y9oaQkZikEkbcDJ6cxFQyB10hM5uS/90mC0VQq6MB7o86Q3t9cOD/WZA7673D09JbqsVDK1mlDG7VGEXTaHvPaAxja3hZ2aytFj9F5+kEaDbMmfItW3T/Dr9VWrYdqakvVtl+lGPAa7Yu0vtrve26k/Qag3ZgWqCLWyEvfb2yNIUNVlT6T2gMa2tYvLFaVEY+dHDNAJ0v4kWnL8IYKrVGbearABfz3SjPkPcoB3imGCielvlEvDhoNhj2M0WNcKwvT0yNEVd+3TFHvDGNLeOyRenhelz69fTCNBhbaU3URU6BwMIH5WGEkvl13+1jBMsPXv2tpMgx0QTHj4c2G01HLNjM8sWjJzUyK+wtwfTLNd/PFbdp1MddOXitPvuYYjJb99zD0cLajFZ8gbaUKZMoRi+MuquS/Prr6zwerGe4rdOTfaUyrW+cfSUBDlpY6aDLd9WnSVtJQO2mzLhxIzXYxOhkLKXlmLvLSUj2o4/T6NSLEh7Q40+8qi1es2l81PyptFdd27haAnmpJYkBbnVOZB8t+52qbI8nQncDn40a2zjrMsHCflZxr7BOj6z2oDjw1233X7tAYda+fZiMKLJHiREh/G6+RjsBnn7XFkwaJkGY9J2fnn+xk4+XdT9auvWrYt9HdzWrVtTeXI+deHCOC/+2NHZ2SxvsQDiyuUCwmyZcGdagAJiYQFNcMx11147P45tmkyOj7PhASBCLr2weVoF0KeRJjhm9siR1NXrtl90ERseAAAQdNNA6nV/d/hwatb31ddeY6MDAACCblr09PamYj0vvOD8JKxGnj0WAAAQdH348s03J34dn/jlrwi6AACAoJs2Bw4etJ54/OeJXb+kTBBxdHaWoAsAAAi6ft31rbsTu25MEAEAAAi6KSdDjiXNww/tZsMCAACCbtrJkGM7d+xI1Dpd9unLk7IqzN0MAAAIuvV4cHeyekATNKRYD3snAACohJnRPEjKrGkXr8wmZpscnZ2dNml5XKbx9CWIOerVMjWru7aSHzGFqP/tZUybOZc5iH2mjmWTD56d6tZu/2ivuk2o24BJyxlBu2TUXcaU/YlzAgi6cCUlDLtHRqxLOjpivR6P/OyxpGySSQOXabTe96AAlqnNsVz96pbjiPa3vVQ4ON5+KhRE0n5qGXapu9WOn/Wq5RmIOMjJB84ml1+12rfVdvsNq2XtTOF+1q1ufQYdg5wTkDqULni044EHYr38d9x2W5I2R5Y9EhHoU6FtIqLXXu3ys00RBtxudZsrE3Jdl99+PAAQdE0V51EYbrn99sRsB9PKFpAqy+2vo8MMlZ0VftccQciVD5rbavxbjl0ABF1TSQlDHCeSeOXll5O0GYyco3lubq7B7eby0JUeHwcztt8yl4fnQ168nRV+F0UPs1vZR7/HtmsK+4NCxPtVztEuOY42gKBrtDhOJHHBhy5ITPsfnZ0dYC9EiEGloO5WOH7catAihrosKqS6hfwWtwAnbVfmQ9wu9iwABF2D3ZqL14fy/a8cSErTM3aunrBSkHpJx20ixNdvlq+wXZZBbsYdXCqsTUS4rQYdP9rs8pgwh9prd/x/rWqfauUIxW9hZCQGufipM8D2yjn2p2yZx52w34W4PLkQ9plcmWMrE9E+XG55pqMovQlpnTNl1lluhZCXpbvCsgyGtAwnHW9l9otpx99N61hmgm4NXti3z/rd4cOxWNYv3XhjYtr96OxsN3tfXZrtk4xbL+DyMC4WkpOuupuyyl/E1GdaHac94kGp/hBfvssRuiXUrnE8ZlNI7dDm8iGg6puOjAxhf22fsb/KL3AoBraN5NjpK/PrPdaxUSBMWR45B0zZ54QkbYNBu63LabUDW1tI7V+pnr7LXpZmQ/aLpuLyVLjYtctvxwzDi9Wop7fX2rp1q/HLufGb30xKk9ObW78NHk5APUENWWWfTL1cxCQnO/naOxPiiTdXLni7BLdcVMHSfv1dJUOeHW9bDz2r9erkEDI6YO2yqo+C0RXi8hQsb6NybJNlD2H/DWOdO3208bgVzLCSpWHS66goU0EuS5kPOdWWp5Llfl6MHt06PDqWN3r5knQRGr252kw6Lhiacfw+yN5B58lrqMIFea0h9zL0lbk5Q2aYbwbOE8za0u3o+F0Y5RVZx//HOJyM4hyCbsxxfIU2/rh97Dq/OWopWZa1PoNNXOysco6bcbTTYEDt3+0SJvsrXSgawTdpLdX2zUoXbPv5JoCgW4eh795r9PJdfPFFSWnqNexteqgTRpvj/80RLkt3lRA5aFr7VRrqK+heD0eZgDN0thrURnPVbhyJwe+Xan/JVjr2Q/6QtrK0x9bel/cmbBu0eTjHhXW+dX5z1lv6TVSZC0WbQmyufsf+4LZvtjj/xvH/DEE3JH8/YO4gAM8+93wi2vjo7CxXaesR2RuLyxvxsIc/W21gG+4M4wIOl1KKGccb5rTL3/Swi6dWd5VQUBRWL/xyx/6ar7bM9U6jboAeL9vAMdxcd0idCuWCymSV805Qy5Pz8JjpKh+ePCPo1umXTz5p5HIlZSY0FXIZY1afiQhf2/mJfbVJPX3lxtG1ez2cobwrhCvYnWUTcoVytvTmElo2hbz/tHNIGSPjMRTko1i4Mse6czzmbEq2QdBt7efclEvYNiDoBuX66683bpkSMhNaP3tXYoJubE+gKuxKb7SzljmwbxnK1CZvsoNB6a3d49/qMujxcStdbgiW14tz8gavQ1vMt4EpH/z8BN1UzFTIqAsaHDp0aH64sdMXLaIxNDo6O5ujFRIj73gjGDP8TddJvvrrqyFYhP2BZMLnG52fwD/hMtpDp4wC4Xhc3iWAR/kBK5+C42vMY9CK6gOnl06LQsK2QSaKhZDjz8fx1paCY4Ogq8tNN91k3bllixHLcvHKbOzbk5KFRAbd0qA4HbPpUMM8qFoj+lsv9jpeQ64yj9WxmoBaUC8fJHvKBPzuiMJXzko+t20w6LL/zZUE411BDefokXO7DCZxw1C6oMnskSPW/hdfNGJZHvnZY3FvzhXsUcni0su32uUNoHQ2obwps6TZV1M7e8uGAnqtbpe2a6hSQ+x8jp4At2PG7Y27XMmE9PhGPMqCW7BL4pv5QLXjK6QPQkXDjv0g57JvlM56NZiAWdKc22B5mXNJkZxTwprsJV9mWSqN7ELQxclu6euLfBkefmh33Jtx6Ojs7AR7UyI5x5B01oftcbwJhBlmKw2FNe4S+LoDWhTnsECbPfxN2BeluS3TVMkHlHxxmmnr5HFFg+Z8o24tHfHDfsNvTdqBVWYUjuPT/toXMM6FuDzOUVb6Sj+A2f8uDVldQU0Y4XVa6AC3QWfJh1jnuWRtQJvAWRffbn+waLOXZdBlWRI7LjZBV6Mfj45a92/fHukyXPbpy+PchHuZGCK5XMaQbKo04oLBX3cOhdhmXnpnO13eYJsDXqZyb4rt9q1SmFwT4LIVXH68s2QfS/JIEW7fhO0pM8JBGE76AFayHZwfxnoTsg1ayu1/Lh9iA+tBtb9Bc07CIB8sxu1l6XL5m2xSDwyCrgZ7CgVr6N57rX0vvmhddfXVkS7Lq6+9Ftt2VCE3w96UeJ7KUkKegcyPzUH15rp9veixrdx6wgL9VsR+U/Q7mkJxpq6gx8Veo2MfjOEHSdnm1XoIW0JcnqzlbTa2oYjrVHWu87Qp5zh7EgYv45XPGHy+1YKL0erw+tGj1vfuv/+kn0uv7l9ecUXoy/OlG2+Mc8hN6oHm7NUIcziXacfrFzwuY9BvxirTNcgb2waXh6wNqU7MzzpLAJ0IIaA5l8vPm78EnO4wd2y716jB/jpUtpnbSBQSdHIhtV1xuXapZWqxw35pz/Jw8St19fuw9vmCx2NQ17rLdpB614Jj3YeKH9Ac6x708rTZ3y7kXfYP2TeyQZUsVNgG0wGvsynnOKtkf5fXc/bi7rXbvxDCooxpeMx0rceSfLquew3WrVuXuikdpUxhX4WLz1RwC32ZTl24kJALAABgo3TBp337XzxeplBJ1LW6hFwAAJB29Oh6VK5MoUqIC235ZOzcuA0rRsgFAABBokbXg2plCuVMjo9by1eEc91DzELujAq5zexZAACAoBuRVw4esHY/9MOa/779oous6ampwJdTAnWMDDGEGAAAIOhGaPs//qN19I036nqOsIb6+lTn6rg06womgwAAAATdiDz6k59Yz+/Zo+35znvfn1lPPvXvgS7z/lcOmN6slCoAAACCblTqLVMo59nnng90ue+6c4vpTbtGhdxd7GEAACBsDC9mHStTCCLkFn1u/frAnvvmr/61qc06JqMqEHIBAEBUUj282P99/HHrmWefDeW1ghpqzNBJIlrU+k5zeAEAgCilskd3anp6ftKHsEKuePih3dqf847bbjOtaXvtXlxCLgAAiFzqenR1jKZQi7e++c3ahxozqDd3UoXbNg4nAABgktRcjPaLiQnrV08+GdnrhzXUWAQoUwAAAEZKQ+nC3q1btzZEGXKLrrz809qe60s33hj16vRTpgAAAEyW9NKFZSrkFuQfpy5caMQy6rooLcKyhb1qHTIcOgAAwHRJLV3oVwE3Z+KCvfLyy9Y7zzwzru26TIXcAocNAAAg6IZPyhQyJi/gxRdfVPdMaRGULUiZQo7DBQAAxEmSSheOlym4MaV0QdRbvhBi2QJlCgAAILZ09ejuVbfWiNbB2DKFcibHx63lK1aYvpiUKQAAAIKu0qNuO0NeduPLFMq58qoray5fCKFsYbMKuD0cGgAAIO60lC6IkMsXVqiQO+HnD0wqXRC1li8EWLYwo5apmUMCAAAkhc5xdIdCWN7NMiau35BrIilfMMgKQi4AAEgabT26IsBe3RkVbusKYqb16H70wxdaPx7N+/obKVvY+M1v6lyMIRVwuzkMAAAAQbd60M2ouz2al3GlCrn5ep/EtKAr/JYvaCxboEwBAAAQdGsIu23qTsf38mtVwB3UtVwE3T9+cFCvm2fXBwAASdeo+wnt+tmWOp5ijV2HO5j0xv/c+vWeH3vHbbfV+3LDKuA2EHIBAEBaaO/RLWWXMkiwqjbGbq8KtgNBrqiJPbrCa69uHb25lCkAAACCbpKlNOhSpgAAAFKrkSaIlpdhxu66c4vfp6VMAQAApB49uhHr+PjHrOH/84OKj2ltPdfa/8oBr0/ZogLuNLs2AAAg6BJ0I1etfMFj2cIa9Ty72KUBAACOWUATmM1DacOYCrhZWgoAAICgGyvXX99b6deUKQAAAJTBxWgGkKl9y3nkZ4+5/XitfbEZIRcAAKAManQNsPSdZ1h7975QbrlL/0uZAgAAgEeULhig3IgKV17+6dL/UqYAAADgAz26hnAbecHuze1VvxtgVwUAAPCHHl2zw28DrQAAAFAbLkYzhMvsZ8O0CgAAAEE39nb88z85f9RDqwAAANSOGl0z7D06O5tR96XLSNkCAABAHejRjd4yO+QCAACAoJsI/fakDwWX3/XSPAAAAPWhdCF8eyv04BaXkbIFAACAOtGjGy7KFAAAAAi62k1G+NqbK5QplBqzbwAAAKhTmiaM6Fa38ZBfc0aF22Yfj8/bNwAAANQpNTW6IuQ63RUq5E74/JssQRcAAECPtNXoDoXxGnaZwkQNfzvNLgkAAKBHqnp0RYC9un7LFAAAABCgNI660BLAc64k5AIAABB0I6UCqZQHrND0dMVJH/LsSgAAAGZJXelCqTrKGNaqcDvI7gMAAGCuVE8YIb2x6m6Zuu318PBeu/e2gZALAABgvv8vQHt3AyVXWed5/F8YIAJJOjuCDkS6sss5wIxjOoOJMLvQ1Tqzi9Vod5goSJDuYBn0gKQ7kKPgQleMEXaBpMPLcWSC6UZkBpclHYa0KGhXkxWQLHYHwpIokkoMmAQhnSCmITq191/1VKg03fX+8tx7v59z7qm8VFfXfe5zb937q+f+H18nugDgBuFwc4Pz0GqWWWV4SZ1Ap9tZ+vr7N1DtBQAAAAAAlyHUBQCLhMPNGtx2OEtjFX+tjuBq7e/fMMwWAAAAAADAfoS6AFBD4XBzu/MQdZZ6S95Sb3//hna2DAAAAAAA9iLUBYAqMqUUtPRBo+VvdWF//4YethgAAAAAAPYh1AWACjMlFXqcZZrL3vrm/v4NDWxBAAAAAADsQqgLAGUWDjfXSaoubpcHVme/swSZUA0AAAAAAHtMogkAoHThcHNQUqNxGz22ajq6WCdQC7KVAQAAAACwAyN1AaBIpqyC1set98HqMoEaAAAAAACWINQFgAKEw81RSZVWmObD1Z/Z378hTi8AAAAAAKC2KL8AAFmYsgo6GreF1kiG2R00AwAAAAAAtUWoCwBjhMPNIUnVx62nNY6g5SYIdQEAAAAAqDFCXQCQZJCrYWVU/FlWIV+E3AAAAAAAWICaugB8KRxurpNUWYU2WqMgTf39G2I0AwAAAAAAtcNIXQC+YcoqaJA7i9YAAAAAAABuRagLwNPC4eZ2SQW5lFUAAAAAAACeQKgLwFNMWYWosyymNQAAAAAAgBcR6gJwvXC4uUFSo3EbaQ0AAAAAAOB1hLoAXCkcbm51HnqEsgoAAAAAAMBnCHUBuIIpq9DhLF20BgAAAAAA8DNCXQDWCoebg5IajUtZBQAAAAAAAINQF4BVTFkFrY9bT2sAAAAAAAC8F6EugJoLh5ujkiqtQH1cAAAAAACAHAh1AVSdKaugo3FbaA0AAAAAAIDCEOoCqIpwuDkkqfq4lFUAAAAAAAAoAaEugIoJh5u1pEJUKKsAAAAAAABQNoS6AMomHG6uk1RZhTZaAwAAAAAAoDIIdQGUxJRV0CB3Fq0BAAAAAABQeYS6AAoWDje3SyrIpawCAAAAAABAlRHqAsjJlFWIOstiWgMAAAAAAKC2CHUBjCscbm6Q1GjcRloDAAAAAADAHoS6AA4Lh5tbnYceoawCAAAAAACAtQh1AR8zZRU6nKWL1gAAAAAAAHAHQl3AZ8Lh5qCkRuNSVgEAAAAAAMCFCHUBHzBlFbQ+bj2tAQAAAAAA4G6EuoBHhcPNUUmVVqA+LgAAAAAAgIcQ6gIeYcoq6GjcFloDAAAAAADAuwh1ARcLh5tDkqqPS1kFAAAAAAAAnyDUBVwmHG7WkgpRoawCAAAAAACALxHqApYLh5vrJFVWoY3WAAAAAAAAAKEuYCFTVkGD3Fm0BgAAAAAAADIR6gKWCIeb2yUV5FJWAQAAAAAAABMi1AVqxJRViDrLYloDAAAAAAAA+SLUBaooHG5ukNRo3EZaAwAAAAAAAMUg1AUqLBxubnUeeoSyCgAAAAAAACgDQl2gzExZhQ5n6aI1AAAAAAAAUG6EukAZhMPNQUmNxqWsAgAAAAAAACqKUBcoUjjcHJJUkFtPawAAAAAAAKBaCHWBApggt0+ojwsAAAAAAIAaIdQFcjClFTTInUVrAAAAAAAAoNYIdYEJhMPNUWGyMwAAAAAAAFiGUBfIEA431zkPMWFULgAAAAAAACxFqAtIMsxtkFSYS61cAAAAAAAAWI1QF74WDje3Ow9raQkAAAAAAAC4BaEufIkwFwAAAAAAAG5FqAtfocwCAAAAAAAA3I5QF75gJkCLC2EuAAAAAAAAXO4omgBeFw43x5yHfUKgCwAAAAAAAA9gpC48i7q5AAAAAAAA8CJCXXiOKbUw7Cz1tAYAAAAAAAC8hvIL8JRwuDkqqVILBLoAAAAAAADwJEbqwhMYnQsAAAAAAAC/YKQuXC8cbm4VRucCAAAAAADAJwh14WrhcHO387COlgAAAAAAAIBfUH4BrhUON8eF0bkAAAAAAADwGUJduE443ByUVP3cabQGAAAAAAAA/IbyC3CVcLg55DxsFwJdAAAAAAAA+BShLlzDTIg2QEsAAAAAAADAzwh14QrhcHO7MCEaAAAAAAAAQKgL+5lAdy0tAQAAAAAAABDqwnKmhi6BLgAAAAAAAGAQ6sJa4XBzUKihCwAAAAAAAByBUBdWCoeb65yHYVoCAAAAAAAAOBKhLmwVc5ZpNAMAAAAAAABwpEk0AWwTDjd3OA+zaInxHXVUQI455lg5+uij5Zhjj5FJ73ufvM9Zcvnzn/8shw4dkrffeUdGD44m/w4AAAAAAAD3IdSFVUwd3VW0RCq8ff9xx8lxznL0pNJ31feZ8Hfy5MkyberUw/+u4e6BN/8gB//4RxodrhMIBNqdh3ZaomSnOcvxOZ6zx1l2l/sXJxKJkAe274ec5YPOspmuVJAOZ/tTagkAAAAoAqEubNPn1xXXUbdTpkyRY485pqq/V4Pe6XXTksu/JxLyxhtvyDtvv0NPhFsEnaWRZqgKrXV+Ots3K/pi4X0KAAAAQBEIdWGNcLi5VXxUdkHD1LrpdVUPcbM5KhCQD/zFXyT//MYb+2R0dJSOCQAAAAAAYBlCXdgk6vUV1NIHGuRqeGq7//AfpsuhP/1JXv/97+Xf/z1B7wQAAAAAALAEoS6sEA43h8SDo3S1Lu7xx58gU6ac4Mr3r7V8P/ShD8mePXuZWA0AAAAAAMAShLqwRbtXVsTGsgql+uAHTyLYBQAAAAAAsAShLmzR5uY3r2UVpk2bmgx0veoDH/iLZLALAAAAAACA2iLURc2Z0guuM2XKFDn+hONdUR+3HDSw1nV+88036bQAAAAAAAA1RKgLG9S54U1qqKmjcXVUrl9pbWBCXXhFIpEo2zcygUCg0rMJLnPeb7RWbVWF9ZtoG+k6R+mtAAAAAHAkQl3YoMHWN3bMscfI9Lo6T5dVKJSG2qOjozQEAAAAAABAjRDqAmNoSQUtM+CXsgqFOvroowl1AQAAAAAAaohQF7531FEBmTp1mhx33PtpjDzo6GWhAgMAAAAAAEDNEOrClzSYnDZtmhw9iV0AAAAAAAAA7kKiBd94/3HHJSc6o6wCAAAAAAAA3IxQF56lZRVOmDJFTjj+eBoDADwqEAjoZJvtzhJyllkF/vh+Z+lzlmgikYhX+f22Oku9i5p60LRVX7XaCgAAAMDECHXhKUcfPUmmTpsmxx5zDI0B+ENcUmFTpWkQN0xz11YgEAg6D1FnaSvTS04zr9UWSN3FoSFvKJFIDJfxPWvf6ZHCA2fbNJplVeDdO15WSyoQH6F3AgAAANVFqAvXmzx5stRNr6OsAuBDiUSiR1KBWSk0dAuZRw2nNNCLSSowTiPQrYFAIFDnPHQ4S1eVfqWGvEPO79Vwt6GUEanOa2i/bPP4Jlqsi7OumyUVhhPuAgAAAFVCqAvX0bIKxx9/gkyZcgKNASBfQUnd7q6LBk99ZkmHuIS2ljBBbo+ztNTwbWi4u915L02JRCJW4PvXEHqVzzabjkLe56z7Mqe9ovRiAAAAoPIIdeEK73vf+5KjcSmrACCHoLwb3sbl3fBW/9xtFlgoEAhEpXojcvM14Lyv6fmOQHWeG5NUiQK/6tJQ3mmvDno0AAAAUFmEurCWllWYNm1qMtAFgHGkJ5xSMSG8dSUXlCnQgDKax3pon6tWoKvlDgotdaAjoKtR11fLMfQVOsIZAAAAQGEIdWGVKVOmyPEnHE99XABjBeXI0gnpsgmMCHQ/19edNSUjFlf41zSVKyitwqhoff0QXRsAAACoHEJd1FQkEgmeeNKJFx89ia4I4LCQvDsCNyqp0be6MPoWNvfZSlpWzpGvWvc2EAhUMtRtpEsAAAAAlUWShqqLRCJ68dvjLPX6dwJdwNf0eNAuqdGaqyUV3MbMAoylZQc6MgNOS2rxNriwLQeF8BUAAABwLdI0VEUkEknXJJxGawC+pcGXHgvSt9v3muNCu7w7MhcYa7/2j0Qi0UdTAAAAAEAKoS4qIhKJaH1BHXHXRmsAvqTHAA1w28WMyhczylIIcJEf7S+hRCIxQlMAAAAAwJEIdVE2pqyCBrmzaA3Ad3T/j8p7b+deZo4LBHPIV28ikWinGQAAAABgYoS6KEkkEtELbw1sKKsA+Md4o3DT9pt/51Z5FIqRuQAAAACQJ0JdFMSUVYg6y2JaA/CH6dOmymc+fYFcdMkC/evAOE/ZIakgN0ZroUhNmZOfAQAAAACyI9RFTpFIRCc30tG4zJIN+MCYEHciOqqy3VmGaTGU2uUYnQsAAAAAhSHUxbgikUir89AjlFUAPG9m/aly0ec+J+c1NWV9Xnz7dgnOnDlbCHJRRgS6AAAAAFA4Ql0kmbIKWiOzi9YAvC3PkbhJIyMjsuKb35QXtm7Tv+7o799AoAsAAAAAQI0R6vpYJBIJSmo0LmUVAA8rJMRNu7O7W/p/8tjYf47RmgAAAAAA1B6hrs+YsgpaH7ee1gC8K/xf/0EubW+Xurq6vH/miYEB6b79dhl9+52JntJHywIAAAAAUHuEuj4QiUSikiqtQH1cwKO0Lm4k8iWZfdbfFvRzY8orZLO/v38DoS5QG12BQIDySAAAAAAOI9T1IFNWQUfjttAagDdNPvYYueiz8wsqqZCp/+GHZc3atdlG5Y7VTasDAAAAAGAHQl2PiEQiIUnVx6WsAuBRf33G6XLlV78qwZkzi/p5HZW76pZbZNNQ4XOd9fdviLIFAAAAAACwA6Gui0UiES2pEBXKKgCepKNxL/jUp+TyRYtKep2hZ38pt956i+zbf6DYl+hkawAAAAAAYA9CXReJRCI645HeAt1GawDe9JcnnSRtbZfJeU1NJb/WA/f/QHrvu7/Ul9nR37+B0gsAAAAAAFiEUNdypqyCBiqzaA3Am+bMbpDOpUulrq6uLK/X9Y1vFFViYQKtbCGg5pYlEokozQAAAAAgjVDXQpFIpF1SQS5lFQAP0rIKn2hslKs6Osr2mlov95qOTvnd3r3lfKud/f0bhtliAAAAAADYhVDXAqasQtRZFtMagDdpkHvRZ+fLRZcsKOvrar3c5d9aLqNvv1Put7yesgsAAAAAANiJULdGIpFIg6RG4zbSGoA3TZ82Va5YtKgs9XHHqmCYq7SOLmUXAA8LBAJ6HlJXqddPJBIxWhkAAACoHELdKopEIhqS9AhlFYpy0oknymWXtckZZ56R87l/ePNN2bb1xXH/b+uL4//762/sS97CPp6du3axAZCXSga5qsJhrtrvLA1sScDzKv3FcoAmBgAAACqHULeCTFkFLZrZRWsU59QZMyTypS/JyaecUtDPnTBlipw1Z+64/zfRv9vs2U3PjPvvO3fslD/+8a33/PvBg6Py6u9+N+7P7H3tNRl9+206VxlVOshVD9z/A+m97/5Kr4oGusH+/g0jbFUAAAAAAOxFqFtmkUgkKKnRuJRVKNJHP/IRufyLX0wGs0ixLaD+3t13yyM/+lElR4tarxpBrqpSmKsIdAEAAAAAcAlC3TIwZRX0NsZ6WqM4Z8+ZIxdfcglBrqW0nMX37rlHntuyRd5+5x15/fev+7IddLKzyMKFEv7MZyr+u7TMwjduuKFaq0agCwAAAACAixDqFikSiWhZhahQH7cok489Vs75+FxZcFkbjWEpLfnwvx9alyzX4O++eoxc8KlPyeWLFlXl91WhZu5YO5ylgUAXAAAAAAD3INQtABOdlUaD3Auam+X8cJjGsNS6Bx+Unw4MUHPXcd7f/Z18/b9/o2q/rwZhrhrs798QoueLBAKBmOVvsd15j6Vsq55EItGTZf31bpMGC9s+6/u2iK6D2+rn17HnAwAAAO5FqJuDmexML9Zm0RqFmzp1qiz4/MWunJzMD7Sswr/ef788vWkTjeGYWX+qrLjpJqmrq17WMTIyItd0dMrv9u6t9uqu7u/f0MFWP8z2Ouj1UlqJn1iO/2+oYRs0lvC+rZBIJGKBQKCSv6JdUncHlYXzXlsrfF4zyCEFAAAAqCxC3QlEIhG9gNKRS4zKLdBJJ54ol13WJmeceQaNYaGtL26VHz7wr7Jz1y4aQ6o34dl4vti+sBZhrprX37+hj60PlNVqZ1lcodeuDwQCCUmVS9F9t9hyKUFnaa3CuU033QEAAACoLELdMSKRSI/zQKHXAp06Y4ZEvvQlOfmUU2gMCz3a3y+PbNhAWYUM81tbqlYnd6yub3xDNg0N1+JXMyEaUCGJRKIjEAhUesSzjtZebHlTLHPagi+NAAAAgAoj1BVKLBTr9NNOk69ceaWcMGUKjWEZyiqMrxblFTI9cP8PpPe++2u1+r39/Rva6QVA5SQSiVAgENBAs8WnTbDQJTWQAQAAANfzdahLmFu4s+fMkYsvuYQg10KvvvKKrPnnf6aswhiTjz1GIgsXSvgzn6nZe6jRJGiZZvf3bximNwCVl0gkWs2IXT2/8EsJp15nvdvZ+gAAAED1+DLUJcwtTNN558qCy6hIYaONgzFZt/5hOXDgAI0xxpzZDdK5dGnNRuWqGk6ClsboXKAGEomEfolSFwgE9ACkI3cbPbiaWs6lnVILAAAAQG34LtSlZm5uk489Vj7Z1CTz5s+nMSyjZRXWr3tIBp7YSGOM23ePkY6rr67JpGdj3fytFfLEk0/W6tdr2BJidC5QW4lEQutXh9J/DwQC7c5Dh7jzS+XNzqLnUD1mvQAAAADUUMA5MffFikYiEb2QWssmH9/UqVNlXstn5NzGEI1hoZ07dsr//J//w4qJzt5+5x15/fevW9U+NozKTdNSC9+44YZavoWF/f0bethrCvwwDAS8fvCLO5/38Szrr+UC6tz2vs17DzoPwVq+hzL2w0qvS1bOesY4GgAAAAAuuY71eqgbiUT8VtcubyedeKL844Xz5Kw5c2kMl7i9u1ue27Klpu/BllDXhlq5mSi1AAAAAAAAqsXToW4kEvHzDNTjOnXGDPncRRfLGWeeQWO41LObnpHvfPfumv3+Woe6f3nSSXJb9yorRuWm3dndLf0/eaxWv15vidZSC9wODQAAAACAT3gy1I1EIiHnYYDNm3L6aafJgi98QU4+5RQawyO0tu7Xv/71mpRjqFWoG/6v/yBXdXRYtR201MLyby13tsM7tfj1hLkAAAAAAPiU50LdSCQSE2/OMl2Qs+fMkYsvuUROmDKFXu5hS5YskQMHDlT1d1Yz1NUSCzf89xtk9ll/a13bL3Xa/oWt22rxqwlzAQAAAADwOc+EuqZ27pCfN2bTeefKgsva6NU+U+1gtxqhro0lFtKeGBiQm2+5tRa/mjAXAAAAAAAkeSLUjUQiUeehy28bb/Kxx8onm5pk3vz59GQfq3YphkqGunNmN8iyFSusbesvti+sxURoTIAGAAAAAACO4PpQ12/lFjTIvehzn5VzG0P0Xhy29cWtcutt1Rk9WolQt+3SS+SiSxZY2779Dz8sd/7Td6v5K/c7S3t//4Y+ejcAAAAAABhrkrNEnUWDg2E3vfFIJKL3ZcedZZrXN9LUqVNlwecvlrPmzKXHYlxnnHlGso7y05s2ueY921wvN1OVR+f2OksHJRYAAAAAAEA2mSN1dVr5qKRCUh0lFpNU2KuLVQFDJBIJOg/b/bCBTp0x4/Cf/9N/nHn4z3/xgRPlxBM/kPzz8SdMTYZ6gLNvVPx3lDpSV+vlXvXVr1of5lZxdO6gpEblxunBAAAAAAAgHxOVX4jKxDVqdbKeHkmFvfFqv+FIJBJyHgbYdIVrPv/8Cevv/mjDBtmUMcozM0A+tb5ejjvuuOSfCZDt9oN7e2XgiY0V/R3Fhro2T342VqVH5+4/sF9efPHFX7zx+utn02sBAAAAAEChctXU1fSlx1la8nitioe9kUik3XlYy2YrnI74vTEazfqcJUuWyIEDB0r+XVoGIHLFFTR6DeikaR2dnRX9HYWGujr5WefSpa4Ic58YGJCbb6lMbeJXfveqbNu6Tf6c+Pf0Pw0eGh0N0WsBAAAAAEChJuX4fy270Gr+3CCp0HbWBM/Vf19llkxlCXsJdEuzc9cuefWVV+TkU06Z8DnzWj4jvd+/r+TfNftvZ9PgNXLClCnJAF+3d61pmLtsxQrXtN3SJUvkha3byvZ6f/7zn+Sll1+Wnb/9LR0TAAAAAACU1VEFPFcnUtNgN+AsCyVVdzcf6bBXa+AmMhYNedslNRo4q0gkosEygW6J+h95JOv/n9sYOqKGb7GY0K22Mktn1IKGuf39G1wT6A49+0u5cN68sgS6WlbhF5uekcd+9lP52eAggS4AAAAAAKiISUX+XI9ZNJDtdpa2Il6jxSyZYe3+jNfWEFkDXQ2S17GpSvf0pk05yyJ87qKL5dbbbqWxUDC3jcxVN39rhTzx5JMlvcY4ZRUAwDMCgYCe64XM0mCWaTl+TO/Siktq0t1YIpEYpiUBAACAMp+r56ipW4hc5RmK9uymZ+TnP39SfvXrX8vo22+z1UqQbbK0tNu7u+W5LVuKev18aveisnR/+c53767Y64+tqevGMHdkZESu/MpXZN/+wmtIa1mFHTt3ym+2by/1bVBTt9YfgKmwKi65AyrkT8O8EdOuumiYN+yca8RpGtfsF3pc0g/yxgq8vH55r4MBup0+MUJre7b/BMcsdZW4PsB7NDn7VayA7TTgtveNw9tPj9FdlrydZc72i5awLrEKfd54pi9yvio7zPqPmPPKw+eYfj+XsGz/QW10Tirji6XLM6gOeW9t3aLp7fxjb+nX+rADP31cnh3eXJbJvfxi45NP5gx1L//iF4uebGuEbeEbbgxzVf/DD8ud//Tdgn7mrT++lfxS6fevv86G985JUI8Ud5cJsksHN41j2nu85w5KqhRTH6FvzfeHin0xP8Y0E0R0mT5RUhiAqvcTLYcWMgshrT3WO/tRK80AePK4GxV7AvxaqTeLasnj/FIHGMQkdadQH70IHqVfdjToFxuTKvQLus1SZ3aosp/46YRfCy5rc5Z3/+0Pb74pj/34x8ngkqB3fNouGwdjyfq5E9HJtprOO1cGnthY1Oujtra++GJFX7/hb/5Grlm61JVtU8hkaHtf2ytbtrxAWQXvnRzrwW+AlrBCo1lWZZyUp8swdRP0VmV/aJfazlmg4W6XuQALMXrXij6h5+6tZmmhRay23+w3lDcBvHcsDkpq0Bx3kxVullkWjxP6rpd3BxRwzgG3Wuj03570XyZV+JfpjpIevasXDt2VPDBpGKmjUDNHomrQ+382bpQnnGXva6+x+R0DA9lDXaWB+VO/eKaochdbX9wqZ5x5Bg1dI6+/sa8ir/vRj3xEru7ocGWbxLdvlyVLljj9+Z0Jn6NlFV559VXZ9utf04m8G1TEhNFlttNzhMUZJ+IaWkSdE5dumqas+4OeCNo0Ul33y33O+yLcrX5f0PBWP9y5fdNdep39pJ1mADx5XO4250Iov8PzOmUEvnrnWDejeuEC454nT6riG+iRdydX66vWyaMGveeHw8klze8jenfu2pWsuzq2pMVYFzQ3y4MPPVTw67/4whZC3RqK79xZ1tc76cQT5frrr0/uS270vbvvlgf71o/7f2+/PSr/b+tWyip4/+S4rCWBUFUa8upIXt1+GvB2ZH4zjYL3BQ3wbJ58Nh3urna2cwdbrCJ9oF1SNZPraQ1X0uNgA3cyAJ48PgeF0bm1kLxzLCPk1dvao5xvwjLzJvriYVIN3oymyiHzZz2xrOjo3fGMN6I3XaO32NGpbvOzn/4sZ6irQXgxI5yf37IlZ91eVIaG9eX6osLtYa7SydC27zgy5H79jdflxRdflINMusjJMdxGt6OOrNByAYxSK3x/0H3BLSPVF5vwMcio3ZK3uw6miAqjvryALzsA7x6re4S5HmxRn3G+qXolNaiA8xHUwqDT90LZnjCpxm+wR94dvRur5cXGuzV63z2WakD2858/Kc9t2eK5nrHtpZeSQbaudzaXOe1x6223FvTaOhKYEgy1oWF9qSYfe6xcddVXXb39RkZG5PKFCw+XW9j5253y0ku/oT4uJ8fwjjZnG+v2JeTIvS/oiaAb60hriK+jdjspv1HwNtfz6m6OgZ6ho3P5ggPw5vFaS1XGhAEIVp9zmvNO/bPe/tnO8RhV0uT0tViuJ02y5M0ma+9GIpHo2XPmdEWuuMKKN6UjWTNHs6br8/7k8cc9Ubah/5FHJFdba7CntVQLDbb/bX2f87NfZzesIg3SNawvxbXXXOv6ML7/4YflttWr5aWXfyOv/m43HcN/J8e2316O8kqP6OR25PH3B71Ny+2TXWn5Db2AamCL5tzeui9U/Q44VBRfagDePWb3CF++uY2eU+0zAS/HZ1TKeqdvteb75EmWvfn2pzdtEl301m8dJWpTwDRefV4N0n7y40ddOZpX2zmfAP3yL35ROjo7C3ptDRcf7e8/oq1QWffe21v0z86/8EJPbKvP/uOF0rehn87gzxNjJkLzLw2wtjt9YB6TXBzeH7w28meWs04J53G2s42H2cIEAz6gNR0bGA0G8BkNa6XnfNCJ1lo5XqMM9M6cUKHnutaEupFIJCQZkzZoHdf0bf82B04aOmcGzzqad/26h1xTm/cH9/YeUXJiPBpmN513rgw8sbGg19ZJ1v7Luee6uiarW6z57ncLrn2sdBT21R3uv3N5z+7dMvfjc+XVPXvpDP48OY46D120hO+tc/rCQr9PbOHx/WGISdQOb2e+yPKuhUzQA3j22O2FO2hwJJ1oTUfvbpZUIEe4i2IUPV/IURatRGii/9BwMBKJyC0335wMTW2mAaaGpHfedZesWbMmuWgoPXXqVCvfr4bP+dB10lqrhbqxi5yl0nREtI66LoSOhO9etcoTge7jP35UZgSDBLr+PDFucBY9ceJAg7S1ZoI8P+4Pdc4S98H+oCU34ibU9Ouxr0cvIIVA12s0EJhOoAt49pxV7zgh0PUu/UzWcHfYz+coKJiOzp1ZygTQrgh10/SWfi0DcNWVVybLHriFjjJeuXLl4ZD3K1csklNnzLDiveloYg0F83FBc3PBr6+1h78ZjbKrVohO5qdfeuRLg3mtm/vtm27yxAjqry1dKp9qaaUj+PPkWEc6DAm3ruG9eny4P+iJoIZ89T5Z5Xpz4dTqt+1sQgFKLXiPlo+h3ALg7XNW+EM63KXeLnJZ5nzu15U6L8gkN665BpFuKM0wkbETsGkwt2FDv+zctasm7+eJjRvzakN9jj630Nv8db2uv+66ZJCI8tk4GJPe79+X9/O9Ujc37ZNNIXniqafpCP47MW53HtbSEsii0eknoXxmi/XIPqHr2ejTba0lNwqaTMKl21hH/OgJP19iec+g039DNAPgyWO31s4lzPWv9GS+IeYDwBg6OjdYri9ybRqpW9QFSbo0w+3d3daXZpiIBrw3RqM1G8mrIa0Gy/n4xwvnFf07dIS1W7eRbbQWcr6BrvYl7VdeCXS1fm59/akEuv47MU7fWk6gi3yE/HCxaEZtNvp8W7doGRavlt1w1kvrJOkobAJd75lNoAt49jM6JgS6SH12D5n5DgDVaUbnlu3OnEleaZnntmxJlmbQWqGXXdZ2xORlblOLkbw/++nPjvid2d7b6c5ztRRGoXSEtW6jti9cKuc2cg5bLC1nkU9f0FIL119/vZx8yimeWffNQ0PysXPOoRP478RYb19aTEugACGP7xM9wi34Yy+atjvtorexRT20nZlQx5s8P7oc8PE5q55/DNASGKNLS0ZpmR2awrcqNpHeJK+1lI4I1dIMGmhd9LnPeiI8HBvyag3cnzz+eLJebbloSPvqK6/kFQAu+MIXSpoATUeYDgzEkqOTkT8N97/z3bvzeq7XSi2o79x5l1x97TV0BB8yM9130BJWX8RoQKHhez2tUdF2DjoPegsfozY9ftGkE62I+ydCW+8sGkzHSq0XBwAuOWeN6SGclijr56F+pofM4uYvOmeZCZ6DHq2f3uSX0me2OcqrK6ajQjU81NIM6x580FPrljnxWveqVdJ03rnJELtU/Y88ktfzNPg9e86ckn6XjjTVbZPvJG1+piUrtCZxPoGu10otpH150SICXcDui5g+Zwk6f5wuqTpRKP9FjX6xsV0IdPO5aEqY0VJu3dZxcV+g2yupcgKBjEUD9h4CXQBACeeYw87SbT5TDn/GOP/V5CyDLlsdPYeLm1r5QFlM8sNKbnj00eTy0Y98RK7u8NZgrxOmTJEFl7UlF6WjbR/8X/8rWY6iUE9v2iQXX3JJ8jVziVxxhQw/91wyPC+F1kR+ZMMGueqqr7q6ZEalaK3ofLalhvpebcOz586RZ597ns4AuOPEe8RMCrGuxm8l5pU2NSf+uj6z6GEFGXDabrUZ6e+m7a3b2g0j3vXLm3b9QoeuBgCowTmnfl6GMj4/9a6xHrH/y299f3o3TpCtiHKY5KeV1XBMR4dq3V2tNZpPeOk2Ooo2M7jeOBiTdesfzrtUw/p1Dx0OiHO5oLk5GcqWSoPhdMkMwt2UfMNcpaOmNWT3Ip0Q7dU9ezlSA+5iwy1lMS80pLlAWUeXKlp65mlX3OpoaiXbPvGdTvDRTdcCANjEfMlYZz5P9bPf5smV67VuPvXVUQ6T/LjSWndXJ+zyQ4ioNYXTdYX1Nv7v3XNP1rDwqV88k3eoq7f4P7FxY7I9yyEd7qrm88+XefPn+6pf6ijrO++8M+/21P578803e/LLCZ0QrfETn5C3Dh7kKA24T61PUAe9UNPLJZNkLZPUaBObg2cdEbPPac+FWgrA4u2t+43Nk9/NY1QuAMANzOd9j6nHGxM7R++2aGktvihFqSb5eeX9NkJUw7/MUbzjTbimbaL/nm9N1n+8cF7ek3cVIl0yY+rUqbLoS4s8vW1+cG+vDDyxsaCf8XLo/cD998ull1/O0RlwITPSsNbBVLvL29DmC5A0vfW+IV0r1XnPWks5bvl7Xqsjd5z3HLL0/fVY+r4YmQsAcCWtx+s81JlzqyEL3+IqPXf26MRpqJJJNMGRI0TnX3ih5yaZmoiuZ3pddZTomn/+5+QEZjr6Nt82OGvOXDn9pz+TbS+9VJH3qIFzettowLvg8xcnf6eb6YhpLXNRaJCrvFw6RN20fLncuGIFByXAJcxJcrtZbAj0mtw8KZPTnhqeLbb8ba4fe7uguRipc8H7bzQzT4fMhZ4t271D7AvENbivadkKl3zBYcMxL0YzANYcz6POQ5clb2eZc3yIslUOh7sBU7fetjJHuo28MPGTzmVAZ6ucCeeJ0JkDrXiHkUgkYVOL+SncHUtDx31vvCEfrs9vng4NhG/sqv5nl058N/+zn03WEbbdeKOi6ZNH+vKiRXLPvff6aVcbPDQ6GuLzKa8TZBtPwGAf14YbZjK0uNgfXuVsY2dd9Lg24IJmt+Zi12kz3fY2TY42WOsRzU6b6AU4kwNW6Lhn2X5KMF349tNjlyeCQ8vO8Urui4S67D/FcLZTwAP7Dyoj55fsjNSdgE4AposGh5klC/xAR4EWMhJUQ1WdrOvpTZuq+j61NnBmfWAdyXvu3/2dfPycc2oa9OrkdENDw3lPdJaL10fnqpZPXyD9jz3OgQdAMXZIqhSAK29dc8FkHmqz074NeV6YxEw5Bg3l6i1epy7T9g01Ho0aEgLdzPbQk+5VHNYAAJWgQbcZUWpNsKvnAny5hXHkVQKLUDcHDeYikYgvw91CRK64ouqh7lg6CjZdizeT1kyu//CH5eST/1LOOPNM+cuTTykp9H120zPy2mu/l12//a28HI+XbaK48fhhxPjZc+fIs889z04EoBiunrzJJaMRC66pakLSoAvKMWiYqpOo1XKkYMiyNmmt0b5AqQUAQFWYYLfVonOwkPkMBNRmSZUKy2vQAaFungh3c9PJu8YGqjbQmsla81eXYurY1oKOOv7msmWeHp2bvJquP1Ve3bOXnQdAIfaLZTVRC+WSEgUl11TV2l9m8rwhy9dV68C9p1ZwlQQtaodltRi1TKkFAEANtFt0fhJic8AoeMDKUbRZYdLh7i0335ysPYuM3jd/fjKMRGmazjtXVq5c6elAd8/u3VI3fTqBLoB8aYkFHU2pcwHUuTzQ7RH7A93Vpp1LDvh0W5lacZstX+cWnUTNWYJV/r1Bi9qgp8r7gob+OqcGgS4AoKrMueRmWgKWGDTXOQXfgUioWyQd9dnR2SnXX3cd4W4GDSO/csUiwt0iaJkIHZ274LI2T6/n5qEhmREMylsHD7LRAeQ8ZDhLp6TqnsbcvCIaFmpo6PzR9oP87Ilm1y3x4klvr19m+brrrf/bTV1XP17gxqu0LzSYfYHauQCAWrJlkACTnfnb7FLmMyDULZHWUyXcPdJZc+Ymw901a9ZI2xcuTYaVyE7Letx51101neCtGh7/8aPysXPOYYMDyJeO4NPgR+ueJsxIStcFbmam5e1id73Q9AiBil3gmFm4Z0uqtIPNVpmSACj/vhCT1O2u1M4FANRa3JZzMDaFL/WW49ybULdMCHfHd25jKBlWasCrNXfxXjqy2Q91mh+4/375VEsrGxxAKTQIWpUR8DbY/Gad91fnLHrB0GV5u84rZYRAIUw5hjoXXMDMMv2s0n0s7ocd12nHdlNqgdFIAABbhGgC1IAObpjpnA+3l+PFCHXLLB3u3t7dTWOMvWKcPz8Z7navWpUcmep3J514YrI9dGSz1920fLlcevnl7AQAykkD3iETvLXb9ubMrMr7nKXe4jbUWsXTi6nfVSoTIne6oJ9pH6vkSV3coj4bqsBrpkstrOWQBQCwjC1fNMbYFL6xzMxbUbbzP0LdCklPqEa4+146AZiOTNVAU2vIarjpNzoZ2rdvuskX66qB7o0rVtDxAVTS2hpNcjUuc4v5OhecVAbLMRlasZzfrSdJM8X+cgyLdcS1jrz2+IVcRwX2A0otAACsY1k5L0o+eV96IEW03C9MqFthhLvZaQ1ZDTc14J1/4YW+qL977TXXen4ytLQvL1pEoAugWtKTXEVr9QbMqETbbzFP3/IVteHN6EgFU45hveX9S0dc7zMjsMu5/jFzom+DlnKsH6UWAAA2M1/SWjNZZy3umEJVLazkQIpJtG91pMNdLTvgh/qpxTg/HE4uWpP4e/fck2wzL9ERyX4Znas00L3n3nvp2ACqrUtH7JarTlUBFwj67e1iy9tmvdMuVhY31/dlAkXbRzivc97nYJlrEPeIPXWXdf1mFntboPOzemHqhprJpdD1m8Whtmx0X4rRDAW3mS3YdnAjm0bGrmZzeNZm53yq4vN/EOpWWTrc1VGpGmDivdLlGdSzm56RtT29Mvr2265eJy234JfRuYpAFx7WZEbWwTBBnC42HeTa9NZvZ1v1VGH9NeCJi/23mFvfd3WkitOe083Fls21iBtNndiGctRE01HT5jZQW/qQjnifXcxszLZ+aVDmfT7kPAy4fDXiFr2XEJ+kBX/mMAoe8M45W5RrJJSC8gs18uBDDyXD3Uf7+2mMLHQSsTvvusvVk6t95YpFvgp0Wz59AYEu4CMaxOmoWGcJOH+dLfbUR11boRqomRcHGsTtE7sDXR0lEHDLibbemqa3qIn9I1fKXe7Dttu4hmpZygQV38/iFr2dRlvqobtE1LK+FGOTwA3MpLq2nbMtq+XcBvAGQt0a03D3qiuvlK0vbqUxssicXM0ttXenTp2aDKM1mPYLDXT7H3ucDgv4NyjQkX02XZxXLChzLg50XVdZvkk6q3HbV4X6km672S54q12mL5S6vj1iX13hLjMBoSv7EHKyqb9RTzK/z52Q2FXmZ5CtAhfsN3Xm7pq1lr21zbbMbwB3I9S1gJYWuPW2W5PhrtaTRXZatiI9elfr1Nro9NNOk5UrVybDaL8g0AWgzIgDWy70yn4ruF5Um0mgbK6pqaOldYbdbpf3pWEzAnyz5W91lvYJE7iUsr7aX3dYtm46omnIhLshgZd0W7YPxdgk2T97xL6yHz1sGVi8z+jktXGx944qPlNRFoS6FtFwt6OzU66/7jrC3TxoYKoTj+noXZtKMzSff74s/frXfbUtCHQBjBG0JSgo8wVCn9hfS3N1IpGo89LtfGa08TIXvNUBp4/0lPgauq77LVy3aWb9NLyOcbu8J/armNj1JUIjI8Nd9dmzvxp164EC9xUdldttvnwfEnvr88+k7ALKhVDXQntfey0Z7t7e3U1j5CmzNEMtXXvNtTJv/nxftT2BLoAxJ9RRsXuSq2LWKWhu3Wux/K3ONmULPMfcojhT7Aw8M7WZYKquyPXUfha0fD11kqbtJuCNmzqFcKeoZe8nc2R4h583jAmnYiacaqHvABPuK6GMfUVH5S62/C3PtKyuOVyOUNdiz23ZwmRqBdLSDBruarhazbq76fq5Z5x5hq/am0AXQMZJdYMJPrs8tl564bpd7J4MbdBMhjbs5T6mF0E6Clnsqz07lvaVfcWGUi4JdtP0C5y1JuBNL30a9FZ6okKUZZ/qsXR/0n1oVUaf6vHDCN5xwqlGS9/qZreX94Fr95FWczwYSR8fJDWKvdEFb18/0wl0Uf79wulUVryRSCSSYHNMTAPKq676qu9Cw1LpBHR33nlHsrRFpZw6Y4bcGI36rm0JdEs2eGh0NEQz5HUCF7PoZK3XWTgZS9H+GxTLR+WamqzF9DsNpIbF/lHH85x17CtyHbWGqxuCktg4/6Z9b60L3rsG7kUf6y07/pWtTbJsVzfQvtdmyXtpMmUUSvmMrTOfa9Ncth12mD6kx+nhUtuhyuc1DeYzVJcWF+4DZQumLDvGlWN/0otCW77cHnThcVb3jTrzOE28Y4fTt4JcI6EinymEuu6iI0K/uWyZrybgKgetUfztb387WdqirJ/8550rCy5r8117EuiW50SLUNeVJyxw2X5WTKBmws51tl8g6EVPMTXZXBRYe8nsYkdSmxG/q2hCjHcqWo4w09RI3u63z4cJ/n3EHB/zMd7nSyN9zrXneF4LdWGH1ZUqjcU1ku/p6O/gJNrBXQ4cOJCst6sTg2kdWeQnPalaOcNdrd+r5R78hkAXgIsUPILVJSfIy0yN2WIuANrFHSNcvUbrhBa13fQ2ZzMBW1y8NXIJltBRl04f05rVfgp2sx3nW+gV41rophHRQI1p4Bbyemks1ExnugwONXVdinq7xUmHu6XW3NWfJ9AFALsVUvPP1AROiN2Brl4gzC4h0NULCwLd2ukyE4vVFdGXR0w94YU0Iyp0vIw7D9PFHbWcUX1NpgYzgNx0dG4dgS4qYLN+Vmde4xDqutyDDz0kV115ZbJ2LPKntYnvvOuugsNdfa4fJ0RTX160iEAXgJvkHX4FAgE9MRqyfH3WF3uBYCYW0cB6Ft2i5rTkxT5T4qNgGqqYOtG9NCXKLePLg/W0Boz9JkCI0RRATpvNxLXcUo2KXNs4fes9pdcIdT1AJwG79bZb5frrrqMxCpQOd7WUQi5az1if68d6xhro3nPvvXQYAG6xPp8RRTpiUmdQdv642PL10RFSRYWAppzEOrqEddY526av2B92+kM74S4qxRxvZtMSvpcebThCUwBZpUdPNtAUqET/Ml8WjHttQ6jrIVonVksyrHvwQRqjQFpKYc2aNclaxeM5dcYMWblypS/bhkAXgMsM5hOAmsmn9ondNUrTFwmxQn/QJeUk/K5Fv1Qwk1QVhXAXlaJ3BZi+RckPHwYI5rOH0YZAdr0mbGvgyw9USFOuLwsIdT1ow6OPUpKhSDr5nJZXOOnEEw//mwa9N0ajvmyPm5YvJ9AF4CY6QjeU60mmtuwqy9els9iLBDMCdIju4Ar6pcJ28yVD0TLC3SahJirKKKPkB+Gu96XrthNQAdn3k4UmzG2nOVDBa5pAPgM7CHU9Kl2S4Zs+DSNLkZ5MTUsynD1nTjLo9SMNdG9csYIOAcAtZucaoRsIBEIuqC2rFwszC5nkLWP9Gkw5CWZud59V5suGkujJv7ldWkO4ZTQryiUj3J0tfHHgNemRuUzsBExsdcZ+0kNzoILXAbMLKbtGqOtxO3ftSpZkeLS/n8YokJZkiFxxhS/X/YH77yfQBeAW6dESWS9EzejVAcvXpddcLMQL/cGMyd6m0SVca5Z+6aDhfDlezOlHUbNvEPCibExZhvQXB51CwOvm4GAht44DWaWD3OTkZ+wnqNJ1QEFfrhHq+sSDDz2ULMnwhzffpDGQlQa6l15+OQ0BwPaL0XnZJg1I03qlLhm9OruY2/hcNNkb8jdkQvqyGRPwaomGzTQzytCvujMC3nnOsoNWsf6zc5k5FjDaEHgvPYalv+wgyEU1j80ziy3nQajrI1qSoaOzU27v7qYxMK7NQ0MEugBsPuHpzLgY7cv1A4FAIOo8bBfLJ0PLZ6RxlvWzfbI3FGexmUStrtwvbEo0NGSEvBrGDdLkKLFf9TlL0PSp6ZIaHc4o3trTfbsp47MzSpMAh40NcYN82YEqW1bsXXpphLo+9NyWLUykhvfYs3u3fOycc2gIALbQMKBXUt9cpy9G8/pW0oxe1ZOjLsvXcWGuGW1dvn4ojYb1+5xt3VrJX2LCuFBGyKuBnN5Wz2heFNunRszo8LqMfjXbHNMJeqv3uRkw+3aMpgGSAe6yMfsHIS5q2R+nl+OLtkm0pT+lJ1I7/bTTZOnXv06D+JwGuqefeSYNAaBWNDzSk+q+Ur6pViYAW+eCC+9gMbf0OevX7jyspcv4yjpnuw9qOFONX2b6ZbdZMvte0HloNUsjmwUF9iu9G6F9gmO2Ltq/62mp6n9uAh7cN/rMvsHEf7BRZzETIk+EUNfntr30UnIita9csUjOmjOXBvGpuR+fK28dPEhDAKjEibUGRHpSrRedw5UcMRQIBPS1bQ+bVmuNtiLXT9txFt3KlxpN7eSGWgU45ve+J+zN6J9B50GXkHnURUeiUx4E2fpVMnzJ0qdCph81iL++TNBRXDHz+RkjnILP7Tf7QvqccticU8ZpGrjsuihU7jrNOuTcirWLRCIJtnFtnTpjhtwYjdIQPnP23Dny7HPP0xDVN3hodDREMwAAAJThwjYQ0OBX61AHzaIyz7Vq8SVD+stNFTOPh8MpJmECAJSCkbo4bOeuXYza9ZmWT19AoAsAAADXYzQrAMBvmCgN7/Gd794t32TEruct+PzF0v/Y4zQEAAAAAACAyxDqYlzpUbvPbnqGxvCgm5Yvlx+u66MhAAAAAAAAXIhQF1npqN1bbr6ZhvDSNr3zLrlxxQoaova4RRAAAAAAABSFUBc5bXvpJbnqyitl64tbaQyX2zw0JFdfew0NYQdCXQAAAAAAUJRAIpGw4o1EIpEEm8N+Z8+ZI5ErrqAhXGjP7t0yIxikIewx/dDoKDMeAwAAAACAgjFSFwV5etMmWbJkifzhzTdpDJeZ+/G5NII9Bgl0AQAAAABAsQh1UbADBw5IR2enbByM0RgucfbcOfLqnr00hD26aQIAAAAAAFAsQl0Urff79zGJmgu0fPoCefa552kIe+w4NDraRzMAAAAAAIBiEeqiJOlJ1F595RUaw0JfW7pU+h97nIawS5QmAAAAAAAApSDURclG335bbuzqknUPPkhjWOQ7d94lK++4g4awi9bS7aEZAAAAAABAKQh1UTYbHn1UvhmN0hAW2Dw0JFdfew0NYZ92miC7QCCQqOXionYK5VgXDsYY22eiFdx3Rpylz1k6nKXOx23cnmd71dEjk+1VZ/plvMS+1+MsDbQoxzQ+BzlPAAC/IdRFWe3ctStZjuEPb75JY9RQ4yc+QSPYZ+Gh0dE4zQDAg6Y5S4uzrHKWfSYwiPkpvHTWNeg8rM3z6cN+7SgavjrLsPkSbZ+zdDlLfYl9r81ZhjJC3lZ2SQAA4AeEuig7LcfQ0dkpGwdjNEYNfOSv/0reOniQhrBLL2UXAPhMo6QC3m6frG8hJz31OrrUT50hPYrZ+eOQs8yq4K/SkHedCXhD7IYAAMDLJtEEqJTe798n27Zuk8gVV9AYVdLy6Qtk229epiHssuPQ6Gg7zZC3wQKf35jj/zc7ywjNCuQ+VjlLT5b/11G3DWP+nk84t1hH7CYSCc8eB01AW+ho0zYdseq0i6dDbzNaOy6psDUf+52lT1KjmceOaNb+F5LUqPB8DDi/f7XTxh3s3gAAwIsIdVFRT2/aJC/H4/Ltm26iMSrspuXLpf+xx2kIu+yXI0MQ5OBcfIcKDAxy1cHtcF4zRssCOcWdfSVazA9qPV3JHrTp7fHtXmw0rSNs1q8Yq0ywG/No2+jxfCCPp+qXb61OO8RzPE/bqXtM26/K8TP6pcJIsX0bVp8v6DZluwIAfI1QFxW397XXknV2r7/+ejn5lFNokAp44P775cYVK2gI+zQcGh1llCisoLc/S2qUm37RkB5hqV88pEfE9Xk9ADejBltNOwTlyJHeOlI1btoi5rRFH70mP05bteb6gkVrqTrPG/ZYf9J9KVuoqPuXBo/Zau3qaNLpTtuMeLBtcgW62j7BYtddRzmbUdLar7KNlO7S5+URGtvWhkFznJrIcL5tl6sUhRuP/Xm0T9xt2zyPz65Ws87jfYb3eO0YW2AbZbaPHn+m8dnu6fO4BrMExxz/03foxcz2jvmkXYIZ57d1E5zfxk279HnwnCOU72flmONpQ0b/SbdTnzmejuR5TB7vNWLmNaryGRRwfpEVGyISiSQEntf2hUvl3MYQDVFGe3bvlhnBIA1hn5lMjFaVD/Fcnx1NXjyhy2ME3DJJjWjTwKOliF+x0Gm3Ho+0VYM5QSt2MiY9QWt1+8Wymem8K8tTBgsdKT+mjYeyPGWz89oNHtsH8ykrMFv7TR4jmXc4zwt6rH3iOfa5sq2z2RbtYsItr1ys5rHP5v35luuz0nmdgAfbZ5mbR2ib46p+Dhdag3q/2R9Gcp0n+LR9PPXZ7pNz/XZzTjuthJfJ944Qt7RJ0PT/xhJfapkX7mTJ8RnXJO+GtYUeL3rT5cPMuUZfEW2ux5pQJfseE6WhqrTO7g/u7aUhymjux+fSCPYh0EWt6YWuzizfUuTPrzWzyNe5+AQvlDExU30JL6U/O2Tag3IqR7ZxnQksh3IEDCEPrn4sxwVmZzos0JHMph0m7GNemjjNXIDn2ufay/X7NMTVUbsacHpt9BF8e1wdkeInFUxOFij5lT5xY/s0lNg+Yz/bmVTR3m3dbc7j1kppga6YvrJdv3B0+blt+s6o7VJ6oJu8XjD7wLCb2yWHAdNexRwv2kz7xM11VTFtXm/6XrRSK0ioi+rvVU9slG9GozREGejEaK/u2UtD2EMv2qcT6MLCfrlaUt9Up5dOSX1znOvC0JW3KZqALNcF7Q7TDuk2mSfZJ+qbZi4AvfoB1mhOXPNeJPcXBzrCoc6Dt/l157g4GBxnArRcoUGbqRHrBe259j1qnQPjHltC5riaK8DSz/VlYz7XV0v2L4+80D76+TuUo33G+2xfn+vy1EtfrHlgO9eZEG1xnue3CzPObXNNuKwB2z4z0tVt7aJfFK/L87x/vTlGLJP8JqGeZdol6vHuNfaaqDPP9hn7RfVgRr9rMu2cS1elBodQUxc1sXPXLlmyZImsXLmSxijS15YuZWI0u+hJJDV0YduJy0T1KmPO0m1G1GWr99notpU2gVu2iauylRnoy7hw7MpyUhb3SnmKCukcJ9T0ysVmex4Xmq1j/8GUYdCLh2w1eD09cVqGeIFtXo720HbtYNeExccWHSWX68tIvYU8lOVzvSPP0jBubJ8OyV5uI1uZn76M15joGNxmjr/d9Maay1UnfaLzuOS5bR7bOv076lzU/+OS+w6Y2bnKiZgvL7KdI+s5bp0HPy8nuiZKXw/lKiOWtnqCttHXiZrgfVaO88Oyl3xhpC5q5sCBA8kJ1P7w5ps0RoEe//GjsvKOO2gIewweGh0NEujCMjknIDLB5GCOE8CQi056g5I9cNuRT91YU19sdZancNGX3aqMEb09HgoVtH+tzfG0eRPtdyYsyGfEWB1d6AiNZVgonQLb5QpRkqFlHp/rWo6kTjw0atccE7NOSplP3XZzDM42om4V3bDm21r3g2IC3Ym29aB51BHbGnoGzOKmQLdbcteoD+RTH9rUh52Z42mLzcSDXhLKduw0bZdrxO76PMLumtzhyEhd1NTo229LR2enXHvNtXLGmWfQIHnQidHmX/x5GsIeyw6NjkZpBlhm0Ke1Jdtz/H+sgJA6nuX/punreGxEpd5t0FPICbKkRrnkqlGmo590VIgXJuPItb1X55pZXevrmnqQ2UbR6cVF0MP7KQErMP4xNZtCR85pENTlk8/2eAGf7VnPjTRUZLRuTbXm0a/z4oUJwIzFJbbZ2HbR/WVZjuODHm/6PNJ++8s0IWI+58ixWhx3CXVhhVtvu1XavnCpnNsYojFy+OQnPyFvHTxIQ9hh9qHRUWbNhY1iPl3vXGFRm2S/7azQC3AvtXO8lAugPG/pc+1FlpkQLtetjzq6ZXEZfl1y4rT0jMsulGt2aC9+KQKUqtzljmoSLlRIrlGV+uXiQJV+F2q7H/hqwEI+X1YUGVh66fiQS7mu1a3te5RfgDV6v3+frHvwQRoiiwWfv1i2/eZlGqL2Nh8aHQ0Q6ALWoQRKjZgAsjfH01x5AWFuB22p8q917cRpZpRbrlu/ewp4vUCuRfKb6MRrQgIv2VHm1yOcZL9iP3C/OE2AXAh1YZUNjz4qP7i3l4YYx3fuvEt+uK6Phqi9zkOjo9w6Crjz5HdZPgFRnkuU5vb+xYcZJVOrOour3FTTeoz2HP9fbyZ+QeX7MOGeN46fhR4LWn3UNqvL+Nkeoit6Yz/QOvj65ah+jrr1OKilEiTHl6RF1r/N9RnNwCUXIdSFdQae2Ci3d1PKKNPmoSG5+tpraIja0m+Opx8aHaVzAvbKtX925Hti7zyv3Vmi5mIgSNPmbC+90Mo1EneHy9ZJ+0pfHus0WMKSa0SrKydOM7WFO3M8rb4ck+mZEc2NPtzt8u0X7QIvfH51FfD5pcfjNq80jJnUNZvFfLb7aj8IFvBa+qWslubYlzGBa3qJuqRNcr3PdYX0ZfOZ2VbidoBFqKkLKz23ZUsy2L26o4PGcHymtYVGqK2Fh0ZHe2gGwPoLvxHnZLVTJh5ZqZNTxU09z+EsJ7waSKUPvF3m3zKfst9NMyfnqa6IUaF6EVFIeOC2D/WYZJ/QTGecLikUMBdi23M8zZUTp2kZBjMad12Op6Yn09tvLiR7zOikidqr1fSlevG2mGT/omSxqVPdkaV/9YiHwj2Pf371OdtrvWQv9aLB1MJsIaeHt/lCZ1mbo22astXqdv5fjy+Ls32267HWTRPNmmAy23GiyU31y81+0JujD2/X50xUd94E/LrOs3J8fkdd9Fmqn3uNOdpEjx/tE/Vf5/8b8jivSfeZOEdl9yDUhbU02G2/7DLpufdeX7dDy6cvkFf37KVD1MZmSi0Arrsw7jYn9BNd5OjJ7JC5kNNRlhrg6gmw/oyeNOcKipIXfR5sunJONDOeeWb0plsulLtzXBCqUBn6q37JkCuscO3EaWabO28/EJPco2mnmf22a0zQUg49Lmy7mNMOO3Ick9KT822Wd2+Xbcij78LObd6ax76y1nnO2ozPo2Gzzad5vG16zHEh27FyIOOzXdsxXuBne4ObAl0Pb+t2cx6X7QuO9JeBxSj5C9katElozICDcWMDSX25UeyvSe8DcXqhuxDqwirvHDokW154QZ7fsuXwv23d+qI8/cwmX7bHTcuXS/9jj9Mxqk8/1EJMhAa49oIgakYrDee40NWLvMUFvPTqbKPiMK5Bt9Uo1Ntz8+gXneW68DFhhbZRW44L2GEzCZkb98mQadvuAve5UuiopQ6XX6BqWBeX3IHdLJk4yNVzmqjUrjY0CtxXzDFobR5P137RmKX/14mHSpOYY6UGWzHJ/sVFvRQ2WrnXjV+aeXw/aC1gZGkhlrl1TgTTJvmMQi7GwjzKnMBS1NRFze0bGZGfDgxI7333yb888MARga569rnn5ey5c3zXLlpH98YVK+gg1aelFuoIdAHXXxDETYmE6c6yuoSX0hE/88wEKgS6+dEwocmNk86Y2/tzhSnryx2umkAhV81hN0+cll7PjvSERJK6nbpcdZb3m/18ZsaER61uH3GkowbNcaxJctdfHktrNk83P885jbu2e4/ZR2YXsY+kJwRt9Wjb6D7RYNpnWRH7ReYxI/3Z3k6vs3JbD5fxPK7JC5Pcjun/80r8DO01nxEBAl130w1oxRuJRCIJNod/bI/H5amnn5ZDf/pT3j9z1kf/xlcjduvrT6XsQnVRNxfwy8lPaqRDg1kya+PGzTLMLZhAzfbPkNkvxyt/pOHkiJtqRFaojdLHr6D5pxHTNhy7vL3dgxmfXYe3u9/3h3E+24NyZJkkPtu9uS/oEuIz4j2fDXVj2iX9+RCntIJHtzuhLqpByyr86le/kmeHhkp6Hb8Eu1pHl7ILVUOYCwAAAAAAXIWauqiYt/74R3n6F7+QXa+8UrbX1FIMGniu/7dHPNtu37nzLgLd6iDMBQAAAAAArsRIXZTVrldfkU3PbJIDf/hDRX9P+B/+3pPB7p7du2VGMEhHqhytn9V6aHQ0RlMAAAAAAAC3YqQuSrblhRfkueefL6g+bql0JOuCz18sP/iXf/VUW37yk5+gQ1XGZmcJHRodpY4WAAAAAABwPUJdFEzLKvxyaEhe3r69pu/jh+v6ZMqiRfJPd9/tiXb9srMu237zMh2svDoPjY520wwAAAAAAMBLCHWRlz2v7ZUnf/5kxcsqFOqee++V+g9/WK674QZXt+/jP340uS4oi/XO0s6oXAAAAAAA4FXU1MWEtv36V/Lss7+salmFYt33ve/JRZdc4tq2rps+Xd46eJBOV7xBSQW5cZoCAAAAAAB4HSN1cdg7hw7J0PCwbN22zXXv/dLLL5czzjxTZs2e7br33vLpCwh0i7PaWaKMyAUAAAAAAH5DqOtzWlZBR+O+9vvfu35dGj/xCRnZt89V7/mm5cuTk74hL/udpePQ6GgPTQEAAAAAAPyM8gs+5KayCoU666N/I08/s8kV73XP7t0yIxikQ2a3WVJBboymAAAAAAAASGGkrg9oWYUtL7wgz2/Z4vl1ffa555PlDNb/2yPWv9dLPn8xnXN8vZIKcimrAAAAAAAAMA5CXY/aNzIivxwakl2vvOK7dddyBlrW4LobbrD2PX5t6VJ54qmn6agpWlZBa+N20xQAAAAAAAC5UX7BW3of+OEPTxt9553/TFOI/N+nnrJy4rTNQ0PysXPO8fvm2eEs7ZRVAAAAAAAAKByhrrvpCMfuNWvWRNP/cPTkyTHnoZGmETn+/e+3cuK0j/z1X8m237zsx02yXlJlFeL0TgAAAAAAgOLZVH5hUAgj85Ec4bhmzZoYTZHdWwcPyiebQvLTAXuaSssu+CjQTX7pcGh0NEpvBAAAAAAAKB9q6rpDcoTjmjVr4jRFYbRurS31dbXswso77vB6k+uXDjoat4/eBwAAAAAAUBk2hboxYaRupmWSKq0wQlOU5sYVKyR8wQU1r6/7mdYWrzaxjrJvp6wCAAAAAABAddgU6nY7S5ePt0VyhOOaNWsY4VgBCy5dIFte+H+1+/2fv1he3bPXS02a/NLh0OgoXzoAAAAAAABUmTUTpalIJNLjPLT5qP2TIxzLWVaBidImtuSrX5X/ccstVf+9j//4UflUS6vbm0/r47ZTVgEAAAAAAKD2rAp1VSQS0ZF/0zzc5qudJVqpsgqEutn936eeqnoZho/89V+5dXI0/dJB6+MO03MAAAAAAADsYeNEaQ3Ost1DbawjHLWsQg/drfaqXYbha0uXui3QTX7pQFkFAAAAAAAAe1k3UldFIpGguDvYTY5wXLNmTdVHODJSN7dqlWHYPDQkHzvnHNubI/mlw6HR0R56BgAAAAAAgDtYGeqmRSIRDUVnuaQtK1pWIV+EuvnZFY/LBz/0oYr+DovLLmyWVJAboycAAAAAAAC4j9WhropEIlqOISb21dndIakQt8emN0Wom5/wP/y9rP+3Ryr2+lp2YeUdd9i0yr2SCnIpqwAAAAAAAOBy1oe6aSbc7ZHajdy1MsQdi1A3fz9a3yd//9/OL/vr7tm9W2YEg7VePS2roLVxu9nSAAAAAAAA3uKaUDeTCXg1rKpUeLnDvH7fmjVr4m5qG0Ld/J3+n/5jRSZN+2RTSJ546ularJL223bKKgAAAAAAAHibK0Pd8ZigN+Qs+hg0S/04Tx00j1qvN66Pa9asiXllgxLqFub2W2+Tr1x1Zdle76bly+XGFSuquQrrJVVWIc7WBAAAAAAA8AfPhLpIIdQtzMkfPEl27NhZttermz5d3jp4sJJvWcsqdB8aHY2y9QAAAAAAAPzpKJoAfvbqnr3J0bXl0PLpCyoV6GpZhXmHRkcDzlJHoAsAAAAAAOBvjNT1GEbqFq4co3Uf//Gj8qmW1nK+LS0T0k5ZBQAAAAAAAIzFSF34no7W/c6dd5X0Gh1LlpTjrSxzlulmRG6IQBcAAAAAAADjIdQFHL339hT9s19bulS2/eblYn5U6+OmyyroEnWWEbYGAAAAAAAAsiHUBRzPPve8PHD//QX/3J7du2XlHXcU8iNaVmF2Rn3cPlofAAAAAAAAhSDUBYz7/6XwUHfRlyL5PG21HFlWYZjWBgAAAAAAQLEm0QRASv9jjydH3n7wQx/K6/k6sld/ZhxaVqHj0OhoD60KAAAAAACAcmOkLpBh5W235f3c5Su+lfnXzc7SlFFWoYfWBAAAAAAAQCUQ6gIZNvRvyOt5ZnK0Xnm3rEKDs8RoQQAAAAAAAFRaIJFI0AoecvTkyTHnoZGWKN6P1vfJ3/+383PuO7QUAAAAAAAAaoGRusAYD/7vh3I9pZNWAgAAAAAAQK0Q6gJjDA8PxbL8t9bO7aaVAAAAAAAAUCuTaAJA9jtL96HR0WjGv8WdpX6c53bQXAAAAAAAAKglRurCr3Y4yzwzyVndmEBX9Y3zM+udJUbTAQAAAAAAoJYIdb0nThNMaNBZZpogN+gsfVmeO97/MUoXAAAAAAAANUeo6z0xmuAIy5xluglyQ84SL7IdVwuBOQAAAAAAACwQSCQStILHHD15sp83qtbHbc8xCjdfw84yy/x5urOM0LsAAAAAAABQa4zU9abVPltfLaswO6M+bl+ZXnfYPOpoXwJdAAAAAAAAWIGRuh519OTJceeh3sOrqMF19NDoaCXD1qik6ujW0aMAAAAAAABgi0k0gWeFnGW7h9ZHyyp0HBod7ani74wJI3QBAAAAAABgGUbqetjRkycHJVVCYJpLV2GzpILcGFsTAAAAAAAASCHU9YGjJ0+OOQ+NLnm7vZIKchkhCwAAAAAAAIyDUNcnjp48uUFS5QRsG7W7Q1K1cXvYSgAAAAAAAEBuhLo+Y0oy9DnLrBq9hWSIq++B0bgAAAAAAABA4Qh1fcwEvFFnaavQr9AAt0eXQ6OjcVocAAAAAAAAKB2hLo5gyjSEnEUfg2apH+epg+ZRJ2KL6yMTmgEAAAAAAACV9/8BKp7T7Iwj3z8AAAAASUVORK5CYII=;" vertex="1" parent="1">
          <mxGeometry x="1790" y="920" width="147" height="61" as="geometry" />
        </mxCell>
        <mxCell id="Pc2j3zboLIjNZZmsstZU-132" value="&lt;font style=&quot;font-size: 21px&quot;&gt;&amp;lt;Process Name&amp;gt;&lt;/font&gt;" style="rounded=0;whiteSpace=wrap;html=1;strokeColor=none;fillColor=#FFFFFF;fontSize=12;align=right;" vertex="1" parent="1">
          <mxGeometry x="20" y="10" width="1130" height="50" as="geometry" />
        </mxCell>
        <mxCell id="Pc2j3zboLIjNZZmsstZU-133" value="&lt;span style=&quot;font-size: 16px&quot;&gt;&amp;lt;Your Name&amp;gt;&lt;/span&gt;" style="rounded=0;whiteSpace=wrap;html=1;strokeColor=none;fillColor=#FFFFFF;fontSize=12;align=right;" vertex="1" parent="1">
          <mxGeometry x="30" y="89" width="1120" height="20" as="geometry" />
        </mxCell>
        <mxCell id="Pc2j3zboLIjNZZmsstZU-134" value="&lt;i&gt;&lt;font face=&quot;Georgia&quot; style=&quot;font-size: 10px&quot;&gt;Template provided by:&lt;/font&gt;&lt;/i&gt;" style="text;html=1;resizable=0;points=[];autosize=1;align=left;verticalAlign=top;spacingTop=-4;fontSize=12;fontColor=#4A4A4A;" vertex="1" parent="1">
          <mxGeometry x="20" y="719" width="120" height="20" as="geometry" />
        </mxCell>
        <mxCell id="Pc2j3zboLIjNZZmsstZU-135" value="" style="rounded=0;whiteSpace=wrap;html=1;strokeColor=none;fillColor=#FFFFFF;fontSize=12;fontColor=#4A4A4A;align=right;" vertex="1" parent="1">
          <mxGeometry x="10" y="822" width="1150" height="1" as="geometry" />
        </mxCell>
        <mxCell id="Pc2j3zboLIjNZZmsstZU-136" value="&lt;span style=&quot;font-size: 16px&quot;&gt;&amp;lt;Level&amp;gt;&lt;/span&gt;" style="rounded=0;whiteSpace=wrap;html=1;strokeColor=none;fillColor=#FFFFFF;fontSize=12;align=right;" vertex="1" parent="1">
          <mxGeometry x="30" y="60" width="1120" height="20" as="geometry" />
        </mxCell>
      </root>
    </mxGraphModel>
  </diagram>
</mxfile>
